<svg width="1728" height="1117" viewBox="0 0 1728 1117" fill="none" xmlns="http://www.w3.org/2000/svg">
<rect width="1728" height="1117" fill="#2A2946"/>
<g filter="url(#filter0_f_334_3853)">
<path d="M1430 162L1431.91 168.692L1438.66 167L1433.82 172L1438.66 177L1431.91 175.308L1430 182L1428.09 175.308L1421.34 177L1426.18 172L1421.34 167L1428.09 168.692L1430 162Z" fill="#FFB800"/>
</g>
<path d="M1300 385L1302.92 393.292H1312.36L1304.72 398.416L1307.64 406.708L1300 401.584L1292.36 406.708L1295.28 398.416L1287.64 393.292H1297.08L1300 385Z" fill="#FFB800"/>
<g filter="url(#filter1_f_334_3853)">
<path d="M350 123L352.483 131.03L361.258 129L354.966 135L361.258 141L352.483 138.97L350 147L347.517 138.97L338.742 141L345.034 135L338.742 129L347.517 131.03L350 123Z" fill="#FFB800"/>
</g>
<path d="M580 250L582.919 258.292H592.364L584.723 263.416L587.641 271.708L580 266.584L572.359 271.708L575.277 263.416L567.636 258.292H577.081L580 250Z" fill="#FFB800"/>
<g filter="url(#filter2_f_334_3853)">
<path d="M292 690L294.483 698.03L303.258 696L296.966 702L303.258 708L294.483 705.97L292 714L289.517 705.97L280.742 708L287.034 702L280.742 696L289.517 698.03L292 690Z" fill="#FFB800"/>
</g>
<g filter="url(#filter3_f_334_3853)">
<path d="M1110 705L1111.91 711.692L1118.66 710L1113.82 715L1118.66 720L1111.91 718.308L1110 725L1108.09 718.308L1101.34 720L1106.18 715L1101.34 710L1108.09 711.692L1110 705Z" fill="#FFB800"/>
</g>
<g filter="url(#filter4_f_334_3853)">
<path d="M980.5 131L981.932 136.019L986.995 134.75L983.365 138.5L986.995 142.25L981.932 140.981L980.5 146L979.068 140.981L974.005 142.25L977.635 138.5L974.005 134.75L979.068 136.019L980.5 131Z" fill="#FFB800"/>
</g>
<g filter="url(#filter5_f_334_3853)">
<path d="M749 1009L751.483 1017.03L760.258 1015L753.966 1021L760.258 1027L751.483 1024.97L749 1033L746.517 1024.97L737.742 1027L744.034 1021L737.742 1015L746.517 1017.03L749 1009Z" fill="#FFB800"/>
</g>
<g filter="url(#filter6_f_334_3853)">
<path d="M1561 812L1562.91 818.692L1569.66 817L1564.82 822L1569.66 827L1562.91 825.308L1561 832L1559.09 825.308L1552.34 827L1557.18 822L1552.34 817L1559.09 818.692L1561 812Z" fill="#FFB800"/>
</g>
<path d="M818.5 506L820.184 511.182H825.633L821.225 514.385L822.908 519.568L818.5 516.365L814.092 519.568L815.775 514.385L811.367 511.182H816.816L818.5 506Z" fill="#FFB800"/>
<path d="M635 59L637.245 65.9098H644.511L638.633 70.1803L640.878 77.0902L635 72.8197L629.122 77.0902L631.367 70.1803L625.489 65.9098H632.755L635 59Z" fill="#FFB800"/>
<path d="M1590 381L1592.92 389.292H1602.36L1594.72 394.416L1597.64 402.708L1590 397.584L1582.36 402.708L1585.28 394.416L1577.64 389.292H1587.08L1590 381Z" fill="#FFB800"/>
<path d="M1249 267L1251.92 275.292H1261.36L1253.72 280.416L1256.64 288.708L1249 283.584L1241.36 288.708L1244.28 280.416L1236.64 275.292H1246.08L1249 267Z" fill="#FFB800"/>
<path d="M1319.5 830L1321.18 835.182H1326.63L1322.22 838.385L1323.91 843.568L1319.5 840.365L1315.09 843.568L1316.78 838.385L1312.37 835.182H1317.82L1319.5 830Z" fill="#FFB800"/>
<path d="M497 510L499.245 516.91H506.511L500.633 521.18L502.878 528.09L497 523.82L491.122 528.09L493.367 521.18L487.489 516.91H494.755L497 510Z" fill="#FFB800"/>
<path d="M135.5 333L137.184 338.182H142.633L138.225 341.385L139.908 346.568L135.5 343.365L131.092 346.568L132.775 341.385L128.367 338.182H133.816L135.5 333Z" fill="#FFB800"/>
<path d="M237 913L239.919 921.292H249.364L241.723 926.416L244.641 934.708L237 929.584L229.359 934.708L232.277 926.416L224.636 921.292H234.081L237 913Z" fill="#FFB800"/>
<path d="M730 784L732.919 792.292H742.364L734.723 797.416L737.641 805.708L730 800.584L722.359 805.708L725.277 797.416L717.636 792.292H727.081L730 784Z" fill="#FFB800"/>
<path d="M1273 59L1275.92 67.2918H1285.36L1277.72 72.4164L1280.64 80.7082L1273 75.5836L1265.36 80.7082L1268.28 72.4164L1260.64 67.2918H1270.08L1273 59Z" fill="#FFB800"/>
<defs>
<filter id="filter0_f_334_3853" x="1420.34" y="161" width="19.3206" height="22" filterUnits="userSpaceOnUse" color-interpolation-filters="sRGB">
<feFlood flood-opacity="0" result="BackgroundImageFix"/>
<feBlend mode="normal" in="SourceGraphic" in2="BackgroundImageFix" result="shape"/>
<feGaussianBlur stdDeviation="0.5" result="effect1_foregroundBlur_334_3853"/>
</filter>
<filter id="filter1_f_334_3853" x="337.742" y="122" width="24.5166" height="26" filterUnits="userSpaceOnUse" color-interpolation-filters="sRGB">
<feFlood flood-opacity="0" result="BackgroundImageFix"/>
<feBlend mode="normal" in="SourceGraphic" in2="BackgroundImageFix" result="shape"/>
<feGaussianBlur stdDeviation="0.5" result="effect1_foregroundBlur_334_3853"/>
</filter>
<filter id="filter2_f_334_3853" x="279.742" y="689" width="24.5166" height="26" filterUnits="userSpaceOnUse" color-interpolation-filters="sRGB">
<feFlood flood-opacity="0" result="BackgroundImageFix"/>
<feBlend mode="normal" in="SourceGraphic" in2="BackgroundImageFix" result="shape"/>
<feGaussianBlur stdDeviation="0.5" result="effect1_foregroundBlur_334_3853"/>
</filter>
<filter id="filter3_f_334_3853" x="1100.34" y="704" width="19.3206" height="22" filterUnits="userSpaceOnUse" color-interpolation-filters="sRGB">
<feFlood flood-opacity="0" result="BackgroundImageFix"/>
<feBlend mode="normal" in="SourceGraphic" in2="BackgroundImageFix" result="shape"/>
<feGaussianBlur stdDeviation="0.5" result="effect1_foregroundBlur_334_3853"/>
</filter>
<filter id="filter4_f_334_3853" x="973.005" y="130" width="14.9905" height="17" filterUnits="userSpaceOnUse" color-interpolation-filters="sRGB">
<feFlood flood-opacity="0" result="BackgroundImageFix"/>
<feBlend mode="normal" in="SourceGraphic" in2="BackgroundImageFix" result="shape"/>
<feGaussianBlur stdDeviation="0.5" result="effect1_foregroundBlur_334_3853"/>
</filter>
<filter id="filter5_f_334_3853" x="736.742" y="1008" width="24.5166" height="26" filterUnits="userSpaceOnUse" color-interpolation-filters="sRGB">
<feFlood flood-opacity="0" result="BackgroundImageFix"/>
<feBlend mode="normal" in="SourceGraphic" in2="BackgroundImageFix" result="shape"/>
<feGaussianBlur stdDeviation="0.5" result="effect1_foregroundBlur_334_3853"/>
</filter>
<filter id="filter6_f_334_3853" x="1551.34" y="811" width="19.3206" height="22" filterUnits="userSpaceOnUse" color-interpolation-filters="sRGB">
<feFlood flood-opacity="0" result="BackgroundImageFix"/>
<feBlend mode="normal" in="SourceGraphic" in2="BackgroundImageFix" result="shape"/>
<feGaussianBlur stdDeviation="0.5" result="effect1_foregroundBlur_334_3853"/>
</filter>
</defs>
</svg>
