<svg width="122" height="243" viewBox="0 0 122 243" fill="none" xmlns="http://www.w3.org/2000/svg">
<path d="M109.927 0.601807C15.7926 9.53534 -34.8615 121.669 27.4821 198.254C56.283 233.781 104.401 251.36 151.839 239.125C177.259 232.564 199.216 218.039 214.863 199.12C283.206 116.903 218.842 -9.79658 109.927 0.601807Z" fill="url(#paint0_radial_250_4056)"/>
<path d="M215.827 121.048C215.827 126.536 215.353 131.921 214.446 137.14C213.951 139.946 213.353 142.711 212.631 145.434C208.632 160.372 201.045 173.824 190.861 184.841C187.17 188.844 183.129 192.516 178.779 195.817C174.78 198.871 170.512 201.615 166.039 204.008C159.977 207.247 153.525 209.826 146.762 211.683C138.866 213.849 130.558 214.984 121.982 214.984C118.044 214.984 114.168 214.736 110.375 214.262C78.5844 210.342 51.7007 190.494 37.9703 162.951C32.6101 152.222 29.2496 140.338 28.3631 127.774C28.1982 125.545 28.1157 123.297 28.1157 121.048C28.1157 106.874 31.2494 93.4425 36.857 81.3936C41.8668 70.6239 48.8763 60.9682 57.3702 52.9012C65.225 45.4325 74.3786 39.3049 84.46 34.9104C95.9432 29.8969 108.643 27.1116 121.961 27.1116C162.431 27.1116 196.922 52.7362 210.095 88.6766C213.373 97.6308 215.332 107.204 215.744 117.21C215.806 118.469 215.827 119.748 215.827 121.048Z" fill="url(#paint1_radial_250_4056)"/>
<path d="M37.95 162.951C37.3109 161.672 36.6924 160.351 36.1151 159.031C31.8475 149.396 29.1674 138.935 28.3634 127.939C28.3634 127.877 28.3634 127.836 28.3428 127.774C30.2395 127.526 32.8371 128.393 34.7338 133.736C37.1872 140.689 48.6086 157.628 37.95 162.951Z" fill="#BCBCBC"/>
<path d="M111.674 146.982C111.55 147.745 111.282 148.467 110.891 149.128C107.901 154.492 97.4901 157.133 85.8832 155.131C75.7812 153.378 67.7202 148.591 65.1226 143.392C64.3598 141.865 64.0712 140.318 64.3392 138.77C65.5143 132.003 76.8739 130.373 89.9446 132.663C103.015 134.912 112.849 140.215 111.674 146.982Z" fill="#BCBCBC"/>
<path d="M83.8622 102.252L83.8416 102.273C81.2439 106.193 73.1417 102.603 63.7201 96.4342C56.0302 91.4001 50.5463 86.3866 50.1752 82.5697C50.0927 81.7032 50.2783 80.8779 50.7525 80.1352C53.3501 76.1739 63.6583 75.9057 73.1005 82.0952C82.5428 88.2847 86.4599 98.2911 83.8622 102.252Z" fill="#BCBCBC"/>
<path d="M132.97 108.009C125.28 114.095 117.467 117.458 112.993 111.805C112.56 111.268 112.21 110.691 111.9 110.072C109.055 104.336 111.859 96.0216 118.827 90.5129C126.517 84.4266 137.011 81.5588 144.165 90.6161C144.206 90.678 144.268 90.7399 144.289 90.8018C148.494 96.393 140.598 101.984 132.97 108.009Z" fill="#BCBCBC"/>
<path d="M102.252 193.011C101.138 194.084 98.9325 194.682 95.469 194.517C82.7693 193.96 68.9771 178.487 72.8323 173.514C72.8942 173.432 72.956 173.37 73.0179 173.308C77.0174 168.79 87.0369 176.918 92.1497 179.601C100.582 184.016 105.2 190.185 102.252 193.011Z" fill="#BCBCBC"/>
<path d="M152.061 181.602C152.082 184.532 148.103 187.626 141.835 187.895C130.373 188.39 123.837 186.182 122.291 182.097C122.126 181.664 122.023 181.21 121.961 180.715C121.405 175.742 131.898 176.588 137.423 176.3C147.793 175.742 152.04 178.59 152.061 181.602Z" fill="#BCBCBC"/>
<path d="M97.8814 58.1007C97.1805 58.5133 96.3558 58.3895 95.4693 57.5024C89.3875 51.416 88.8515 41.4715 92.1501 39.821C93.4489 39.1608 94.5828 38.9545 95.5518 39.0576C102.149 39.8004 101.427 55.955 97.8814 58.1007Z" fill="#BCBCBC"/>
<path d="M146.742 211.662C138.846 213.829 130.538 214.963 121.961 214.963C118.024 214.963 114.148 214.716 110.354 214.241C110.354 213.127 110.561 211.931 111.241 210.92C111.901 209.95 112.993 209.166 114.787 208.877C121.405 207.763 124.724 203.348 134.104 203.905C138.97 204.194 142.372 206.566 144.495 208.774C145.546 209.888 146.268 210.92 146.742 211.662Z" fill="#BCBCBC"/>
<path d="M105.963 164.684C103.489 163.446 101.551 162.476 102.107 167.448C102.664 172.421 106.519 173.535 109.838 173.535C113.137 173.535 108.169 165.798 105.963 164.684Z" fill="#9B9B9B"/>
<path d="M60.1329 161.383C57.927 160.826 57.927 164.704 56.2777 168.563C54.6284 172.421 56.8343 175.185 60.1329 175.185C63.4521 175.185 64.5448 162.476 60.1329 161.383Z" fill="#9B9B9B"/>
<path d="M50.1957 111.64C48.0722 110.67 45.7838 109.432 45.2272 111.64C44.6705 113.847 49.6391 119.934 52.4016 119.934C55.1642 119.934 56.2569 114.404 50.1957 111.64Z" fill="#9B9B9B"/>
<path d="M40.2588 102.252C38.7744 102.995 38.6095 106.11 42.4647 105.574C46.32 105.017 43.5574 100.602 40.2588 102.252Z" fill="#9B9B9B"/>
<path d="M118.662 63.5884C117.013 64.1454 114.807 65.796 118.662 66.353C122.518 66.8894 120.312 63.0313 118.662 63.5884Z" fill="#9B9B9B"/>
<path d="M97.6749 203.925C96.0256 204.482 94.3557 205.576 97.6749 206.69C100.994 207.783 99.3242 203.368 97.6749 203.925Z" fill="#9B9B9B"/>
<path d="M100.437 122.698C97.6337 122.843 103.757 126.556 105.406 127.113C107.055 127.67 112.024 122.141 100.437 122.698Z" fill="#9B9B9B"/>
<path d="M50.1752 82.5905C50.0927 81.7239 50.2783 80.8987 50.7525 80.1559C53.3501 76.1946 63.6583 75.9264 73.1005 82.1159C82.5428 88.3054 86.4599 98.3118 83.8622 102.273L83.8416 102.294C83.9859 99.8798 82.9757 96.4962 79.4503 91.7716C70.2555 79.4957 53.4944 75.2662 50.1752 82.5905Z" fill="#9B9B9B"/>
<path d="M111.674 146.982C111.55 147.745 111.282 148.467 110.891 149.128C110.664 148.179 108.623 140.731 99.325 137.615C89.6766 134.397 76.6883 131.529 68.9572 137.615C66.4832 139.555 65.4318 141.556 65.1226 143.371C64.3598 141.845 64.0712 140.297 64.3392 138.75C65.5143 131.983 76.8739 130.353 89.9446 132.643C103.015 134.912 112.849 140.215 111.674 146.982Z" fill="#9B9B9B"/>
<path d="M126.93 88.9862C116.663 92.5348 112.333 102.603 111.9 110.072C109.055 104.336 111.859 96.0216 118.827 90.5129C126.517 84.4266 137.011 81.5588 144.165 90.6161C144.206 90.678 144.268 90.7399 144.289 90.8018C141.196 88.4085 135.568 86.0152 126.93 88.9862Z" fill="#9B9B9B"/>
<path d="M97.8814 58.1007C97.1805 58.5133 96.3558 58.3895 95.4693 57.5024C89.3875 51.416 88.8515 41.4715 92.1501 39.821C93.4489 39.1608 94.5828 38.9545 95.5518 39.0576C94.2117 39.3052 92.1501 40.4812 92.1501 45.3503C92.1501 50.9621 94.8508 55.563 97.8814 58.1007Z" fill="#9B9B9B"/>
<path d="M102.252 193.011C101.778 190.04 99.0564 187.152 94.3559 184.573C88.2741 181.251 83.8622 177.95 80.007 175.185C77.9866 173.741 75.2034 173.349 73.0181 173.308C77.0176 168.79 87.0371 176.918 92.15 179.601C100.582 184.016 105.2 190.185 102.252 193.011Z" fill="#9B9B9B"/>
<path d="M152.061 181.602C151.174 179.394 148.494 178.486 144.041 178.486H128.579C122.662 178.486 122.291 181.911 122.291 182.076C122.126 181.643 122.023 181.189 121.961 180.694C121.405 175.722 131.898 176.568 137.423 176.279C147.793 175.742 152.04 178.59 152.061 181.602Z" fill="#9B9B9B"/>
<path d="M144.495 208.794C145.546 209.867 146.268 210.92 146.742 211.662C138.846 213.829 130.538 214.963 121.961 214.963C118.024 214.963 114.148 214.716 110.354 214.241C110.354 213.127 110.561 211.93 111.241 210.919C129.589 215.252 140.166 211.229 144.495 208.794Z" fill="#9B9B9B"/>
<path d="M37.95 162.951C37.3109 161.672 36.6924 160.351 36.1151 159.031C38.754 156.637 41.3517 152.263 38.053 145.352C33.971 136.79 31.9919 129.424 28.3634 127.939C28.3634 127.877 28.3634 127.836 28.3428 127.774C30.2395 127.526 32.8371 128.393 34.7338 133.736C37.1872 140.689 48.6086 157.628 37.95 162.951Z" fill="#9B9B9B"/>
<path opacity="0.45" d="M178.779 195.817C174.78 198.87 170.512 201.614 166.039 204.008C159.977 207.247 153.524 209.826 146.762 211.683C138.866 213.849 130.558 214.984 121.982 214.984C118.044 214.984 114.168 214.736 110.375 214.262C78.5844 210.342 51.7007 190.494 37.9703 162.951C32.6101 152.222 29.2496 140.338 28.3631 127.774C28.1982 125.545 28.1157 123.297 28.1157 121.048C28.1157 106.874 31.2494 93.4424 36.857 81.3935C41.8668 70.6238 48.8763 60.9681 57.3702 52.9011C31.1876 177.867 127.486 195.177 178.779 195.817Z" fill="url(#paint2_linear_250_4056)"/>
<path d="M215.827 121.048C215.827 126.536 215.353 131.921 214.445 137.14C213.951 139.946 213.353 142.711 212.631 145.434C209.374 69.8811 158.246 26.9259 84.46 34.9104C95.9432 29.8969 108.643 27.1116 121.961 27.1116C162.431 27.1116 196.922 52.7362 210.095 88.6766C213.373 97.6308 215.332 107.204 215.744 117.21C215.806 118.469 215.827 119.748 215.827 121.048Z" fill="url(#paint3_linear_250_4056)"/>
<defs>
<radialGradient id="paint0_radial_250_4056" cx="0" cy="0" r="1" gradientUnits="userSpaceOnUse" gradientTransform="translate(121.502 121.493) scale(112.425 112.51)">
<stop stop-color="#F8F8F8"/>
<stop offset="1" stop-color="white" stop-opacity="0"/>
</radialGradient>
<radialGradient id="paint1_radial_250_4056" cx="0" cy="0" r="1" gradientUnits="userSpaceOnUse" gradientTransform="translate(117.826 71.3165) scale(143.326 143.433)">
<stop stop-color="#E8E8E8"/>
<stop offset="1" stop-color="#DFDFDF"/>
</radialGradient>
<linearGradient id="paint2_linear_250_4056" x1="103.83" y1="256.908" x2="102.913" y2="24.1166" gradientUnits="userSpaceOnUse">
<stop/>
<stop offset="1" stop-opacity="0.2"/>
</linearGradient>
<linearGradient id="paint3_linear_250_4056" x1="205.455" y1="27.0701" x2="148.303" y2="90.346" gradientUnits="userSpaceOnUse">
<stop stop-color="#B7B7B7"/>
<stop offset="0.557292" stop-color="#AEAEAE" stop-opacity="0.2"/>
</linearGradient>
</defs>
</svg>
