<svg width="699" height="699" viewBox="0 0 699 699" fill="none" xmlns="http://www.w3.org/2000/svg">
<path d="M316.208 1.73112C45.4282 27.4288 -100.281 349.985 79.0533 570.285C161.9 672.482 300.315 723.047 436.772 687.854C509.894 668.981 573.052 627.2 618.064 572.778C814.655 336.276 629.509 -28.1803 316.208 1.73112Z" fill="url(#paint0_radial_84_2288)"/>
<path d="M620.835 348.199C620.835 363.986 619.471 379.475 616.862 394.49C615.439 402.562 613.719 410.514 611.643 418.348C600.138 461.316 578.314 500.011 549.018 531.703C538.403 543.217 526.78 553.781 514.267 563.276C502.762 572.06 490.486 579.953 477.617 586.837C460.182 596.155 441.62 603.574 422.168 608.915C399.455 615.146 375.555 618.41 350.885 618.41C339.558 618.41 328.409 617.698 317.497 616.333C226.051 605.057 148.719 547.964 109.223 468.735C93.8042 437.874 84.1377 403.689 81.5877 367.546C81.1133 361.137 80.876 354.668 80.876 348.199C80.876 307.427 89.8902 268.791 106.021 234.132C120.431 203.153 140.595 175.378 165.028 152.173C187.622 130.689 213.953 113.062 242.953 100.421C275.985 85.9995 312.516 77.9875 350.826 77.9875C467.239 77.9875 566.454 151.698 604.349 255.082C613.778 280.839 619.412 308.377 620.598 337.16C620.776 340.781 620.835 344.46 620.835 348.199Z" fill="url(#paint1_radial_84_2288)"/>
<path d="M109.165 468.735C107.326 465.055 105.547 461.257 103.887 457.459C91.6107 429.743 83.9013 399.654 81.5884 368.021C81.5884 367.843 81.5884 367.724 81.5291 367.546C86.985 366.834 94.4573 369.327 99.9132 384.698C106.97 404.698 139.824 453.423 109.165 468.735Z" fill="#BCBCBC"/>
<path d="M321.235 422.8C320.879 424.996 320.108 427.073 318.981 428.972C310.382 444.403 280.434 451.999 247.046 446.242C217.987 441.198 194.799 427.429 187.327 412.473C185.133 408.082 184.303 403.63 185.074 399.179C188.454 379.713 221.13 375.025 258.729 381.612C296.327 388.081 324.615 403.334 321.235 422.8Z" fill="#BCBCBC"/>
<path d="M241.233 294.133L241.174 294.192C233.702 305.469 210.396 295.142 183.294 277.397C161.174 262.916 145.399 248.494 144.331 237.515C144.094 235.022 144.628 232.649 145.992 230.512C153.464 219.117 183.116 218.346 210.277 236.15C237.438 253.954 248.706 282.738 241.233 294.133Z" fill="#BCBCBC"/>
<path d="M540.361 460.545C518.478 478.824 492.266 483.513 481.887 470.99C481.354 470.337 480.879 469.685 480.464 468.972C472.518 455.975 482.006 432.651 502.762 415.381C523.874 397.755 548.96 392.77 560.05 403.63C560.465 404.046 560.88 404.461 561.236 404.877C571.614 417.399 562.303 442.325 540.361 460.545Z" fill="#BCBCBC"/>
<path d="M382.494 310.692C360.374 328.199 337.898 337.873 325.029 321.612C323.784 320.068 322.776 318.407 321.886 316.626C313.702 300.128 321.767 276.21 341.812 260.364C363.932 242.857 394.118 234.607 414.696 260.661C414.815 260.839 414.993 261.017 415.052 261.195C427.15 277.279 404.437 293.362 382.494 310.692Z" fill="#BCBCBC"/>
<path d="M294.132 555.205C290.93 558.291 284.584 560.012 274.621 559.538C238.09 557.935 198.416 513.424 209.506 499.121C209.684 498.884 209.862 498.706 210.039 498.528C221.544 485.531 250.366 508.914 265.073 516.629C289.328 529.329 302.612 547.075 294.132 555.205Z" fill="#BCBCBC"/>
<path d="M437.41 522.386C437.469 530.813 426.023 539.715 407.995 540.487C375.022 541.911 356.223 535.561 351.775 523.81C351.301 522.564 351.004 521.258 350.826 519.834C349.225 505.531 379.411 507.964 395.304 507.133C425.134 505.531 437.35 513.721 437.41 522.386Z" fill="#BCBCBC"/>
<path d="M537.336 332.769C533.718 338.17 526.72 341.849 517.647 341.849C489.063 341.849 450.93 321.196 455.734 302.086C456.268 299.89 457.098 297.991 458.047 296.448C465.401 284.578 483.963 290.335 501.813 294.133C537.514 301.73 545.164 321.196 537.336 332.769Z" fill="#BCBCBC"/>
<path d="M444.526 192.411C444.17 191.58 443.992 190.63 443.873 189.621C443.162 181.491 451.168 169.621 466.765 165.348C476.905 162.559 490.604 162.915 499.085 168.137C502.821 170.452 505.49 173.657 506.498 178.049C508.87 188.969 449.566 205.052 444.526 192.411Z" fill="#BCBCBC"/>
<path d="M281.56 167.129C279.544 168.316 277.172 167.96 274.622 165.408C257.127 147.9 255.585 119.294 265.074 114.546C268.81 112.647 272.072 112.054 274.859 112.351C293.836 114.487 291.761 160.957 281.56 167.129Z" fill="#BCBCBC"/>
<path d="M581.102 267.13C579.857 267.724 578.374 267.842 576.773 267.427C570.131 265.706 561.472 255.498 558.863 240.127C557.38 231.106 561.888 222.441 567.759 219.711C574.282 216.625 582.525 220.898 585.846 240.127C587.803 251.047 587.507 263.925 581.102 267.13Z" fill="#BCBCBC"/>
<path d="M549.019 531.703C528.56 553.84 504.423 572.535 477.618 586.778C474.593 585.295 471.865 583.099 470.798 579.953C469.849 577.164 470.264 573.603 473.17 569.093C484.26 551.585 495.409 524.582 520.791 522.979C528.204 522.504 534.075 523.395 538.76 525.056C543.267 526.718 546.588 529.092 549.019 531.703Z" fill="#BCBCBC"/>
<path d="M422.11 608.856C399.397 615.087 375.497 618.351 350.827 618.351C339.5 618.351 328.351 617.639 317.439 616.274C317.439 613.069 318.032 609.627 319.989 606.719C321.887 603.93 325.03 601.675 330.189 600.844C349.226 597.639 358.774 584.938 385.757 586.541C399.752 587.372 409.537 594.197 415.646 600.547C418.67 603.752 420.746 606.719 422.11 608.856Z" fill="#BCBCBC"/>
<path d="M387.595 116.505C386.231 123.27 374.785 125.704 369.27 123.152C368.084 122.617 367.194 121.846 366.72 120.896C363.517 114.546 384.452 102.677 387.357 112.944C387.713 114.249 387.773 115.436 387.595 116.505Z" fill="#BCBCBC"/>
<path d="M304.806 473.72C297.689 470.159 292.115 467.37 293.716 481.673C295.317 495.976 306.407 499.181 315.955 499.181C325.443 499.181 311.151 476.925 304.806 473.72Z" fill="#9B9B9B"/>
<path d="M172.974 464.225C166.629 462.622 166.629 473.78 161.885 484.878C157.14 495.976 163.486 503.928 172.974 503.928C182.522 503.928 185.665 467.37 172.974 464.225Z" fill="#9B9B9B"/>
<path d="M144.39 321.137C138.282 318.347 131.699 314.786 130.098 321.137C128.496 327.487 142.789 344.994 150.735 344.994C158.682 344.994 161.825 329.089 144.39 321.137Z" fill="#9B9B9B"/>
<path d="M620.835 348.199C620.835 363.986 619.471 379.475 616.861 394.49C614.548 393.6 612.176 391.998 609.686 389.505C593.792 373.6 605.831 351.048 609.686 343.392C613.955 334.846 618.225 335.617 620.597 337.101C620.775 340.78 620.835 344.46 620.835 348.199Z" fill="#9B9B9B"/>
<path d="M457.276 365.647C448.083 364.52 442.983 371.998 457.276 378.348C471.568 384.757 469.966 367.25 457.276 365.647Z" fill="#9B9B9B"/>
<path d="M115.806 294.133C111.536 296.27 111.061 305.231 122.151 303.688C133.241 302.086 125.294 289.385 115.806 294.133Z" fill="#9B9B9B"/>
<path d="M341.338 182.915C336.593 184.517 330.248 189.265 341.338 190.868C352.427 192.411 346.082 181.313 341.338 182.915Z" fill="#9B9B9B"/>
<path d="M368.32 182.915C362.508 179.532 361.975 195.615 366.719 201.966C371.463 208.316 387.357 194.013 368.32 182.915Z" fill="#9B9B9B"/>
<path d="M419.143 559.597C415.703 560.368 414.398 565.947 423.887 569.152C433.435 572.297 433.435 556.392 419.143 559.597Z" fill="#9B9B9B"/>
<path d="M280.966 586.6C276.222 588.203 271.418 591.348 280.966 594.553C290.514 597.698 285.71 584.998 280.966 586.6Z" fill="#9B9B9B"/>
<path d="M288.913 352.947C280.847 353.362 298.461 364.045 303.205 365.647C307.949 367.25 322.241 351.345 288.913 352.947Z" fill="#9B9B9B"/>
<path d="M549.374 311.64C545.401 314.727 552.576 332.294 558.922 330.691C565.267 329.089 563.666 300.483 549.374 311.64Z" fill="#9B9B9B"/>
<path d="M421.636 423.037C420.924 425.767 420.035 428.438 419.145 430.812C414.519 443.216 387.18 448.082 379.945 442.385C379.767 442.266 379.589 442.088 379.412 441.91C373.066 435.56 379.234 419.595 382.614 411.702C387.358 400.604 411.198 392.651 419.145 395.797C425.55 398.467 424.719 411.465 421.636 423.037Z" fill="#BCBCBC"/>
<path d="M144.331 237.575C144.094 235.082 144.628 232.708 145.992 230.572C153.464 219.177 183.116 218.405 210.277 236.21C237.438 254.014 248.706 282.798 241.233 294.193L241.174 294.252C241.589 287.308 238.683 277.575 228.543 263.985C202.093 228.672 153.879 216.506 144.331 237.575Z" fill="#9B9B9B"/>
<path d="M321.235 422.8C320.879 424.996 320.108 427.073 318.981 428.972C318.329 426.242 312.458 404.817 285.712 395.856C257.958 386.597 220.596 378.348 198.358 395.856C191.241 401.434 188.217 407.191 187.327 412.414C185.133 408.022 184.303 403.571 185.074 399.12C188.454 379.654 221.13 374.965 258.729 381.553C296.327 388.081 324.615 403.334 321.235 422.8Z" fill="#9B9B9B"/>
<path d="M365.118 255.973C335.585 266.181 323.131 295.142 321.886 316.626C313.702 300.128 321.767 276.21 341.812 260.364C363.932 242.857 394.118 234.607 414.696 260.661C414.815 260.839 414.993 261.017 415.052 261.195C406.156 254.311 389.967 247.427 365.118 255.973Z" fill="#9B9B9B"/>
<path d="M421.635 423.037C421.339 411.524 418.492 398.527 406.454 402.206C394.119 406.004 380.123 428.379 380.004 442.385C379.826 442.266 379.649 442.088 379.471 441.91C373.125 435.56 379.293 419.595 382.673 411.702C387.417 400.604 411.257 392.651 419.204 395.797C425.55 398.467 424.719 411.465 421.635 423.037Z" fill="#9B9B9B"/>
<path d="M537.336 332.769C540.954 311.819 507.388 305.053 490.605 298.94C474 292.887 462.614 295.023 457.988 296.448C465.342 284.578 483.904 290.335 501.754 294.133C537.514 301.73 545.165 321.196 537.336 332.769Z" fill="#9B9B9B"/>
<path d="M444.527 192.411C444.171 191.58 443.993 190.63 443.875 189.621C453.897 196.268 479.575 190.868 493.749 184.458C503.89 179.829 502.229 173.063 499.086 168.197C502.822 170.511 505.491 173.716 506.499 178.108C508.871 188.969 449.568 205.052 444.527 192.411Z" fill="#9B9B9B"/>
<path d="M281.56 167.129C279.544 168.316 277.172 167.96 274.622 165.408C257.127 147.9 255.585 119.294 265.074 114.546C268.81 112.647 272.072 112.054 274.859 112.351C271.004 113.063 265.074 116.446 265.074 130.452C265.074 146.594 272.843 159.829 281.56 167.129Z" fill="#9B9B9B"/>
<path d="M387.595 116.505C387.061 113.775 384.926 111.163 377.869 112.944C372.117 114.368 369.922 118.76 369.27 123.152C368.084 122.617 367.194 121.846 366.72 120.896C363.517 114.546 384.452 102.677 387.357 112.944C387.713 114.249 387.773 115.436 387.595 116.505Z" fill="#9B9B9B"/>
<path d="M294.132 555.205C292.768 546.659 284.94 538.35 271.419 530.932C253.924 521.377 241.233 511.881 230.143 503.929C224.332 499.774 216.326 498.647 210.04 498.528C221.544 485.531 250.366 508.914 265.073 516.629C289.328 529.329 302.612 547.075 294.132 555.205Z" fill="#9B9B9B"/>
<path d="M437.41 522.386C434.86 516.035 427.15 513.424 414.341 513.424H369.863C352.843 513.424 351.775 523.276 351.775 523.751C351.301 522.504 351.004 521.199 350.826 519.774C349.225 505.472 379.411 507.905 395.304 507.074C425.134 505.531 437.35 513.721 437.41 522.386Z" fill="#9B9B9B"/>
<path d="M415.646 600.606C418.67 603.692 420.746 606.719 422.11 608.856C399.397 615.087 375.497 618.351 350.827 618.351C339.5 618.351 328.351 617.639 317.439 616.274C317.439 613.069 318.032 609.627 319.989 606.719C372.769 619.182 403.192 607.609 415.646 600.606Z" fill="#9B9B9B"/>
<path d="M549.019 531.704C528.559 553.84 504.422 572.535 477.617 586.779C474.593 585.295 471.865 583.099 470.797 579.953C515.097 563.336 534.252 533.247 538.759 525.116C543.266 526.718 546.587 529.092 549.019 531.704Z" fill="#9B9B9B"/>
<path d="M560.05 403.63C556.491 402.384 531.169 395.321 501.695 429.209C486.81 446.361 481.65 459.655 480.464 468.972C472.518 455.975 482.006 432.651 502.762 415.381C523.874 397.814 548.96 392.769 560.05 403.63Z" fill="#9B9B9B"/>
<path d="M576.773 267.367C570.131 265.646 561.472 255.438 558.863 240.067C557.38 231.046 561.888 222.381 567.759 219.651C565.209 223.034 562.836 228.198 563.607 235.319C564.971 246.833 569.3 258.346 576.773 267.367Z" fill="#9B9B9B"/>
<path d="M109.165 468.735C107.326 465.055 105.547 461.257 103.887 457.459C111.477 450.574 118.95 437.993 109.461 418.111C97.719 393.482 92.0258 372.294 81.5884 368.021C81.5884 367.843 81.5884 367.724 81.5291 367.546C86.985 366.834 94.4573 369.327 99.9132 384.698C106.97 404.698 139.824 453.423 109.165 468.735Z" fill="#9B9B9B"/>
<path opacity="0.45" d="M514.267 563.276C502.762 572.06 490.486 579.953 477.617 586.837C460.182 596.155 441.62 603.573 422.168 608.915C399.455 615.146 375.555 618.41 350.885 618.41C339.558 618.41 328.409 617.698 317.497 616.333C226.051 605.057 148.719 547.964 109.223 468.735C93.8041 437.874 84.1377 403.689 81.5877 367.546C81.1133 361.137 80.876 354.668 80.876 348.199C80.876 307.427 89.8902 268.791 106.021 234.132C120.431 203.152 140.595 175.378 165.028 152.172C89.7122 511.643 366.719 561.436 514.267 563.276Z" fill="url(#paint2_linear_84_2288)"/>
<path d="M620.836 348.199C620.836 363.986 619.471 379.475 616.862 394.491C615.439 402.562 613.719 410.514 611.643 418.348C602.273 201.016 455.201 77.4535 242.953 100.421C275.985 85.9996 312.516 77.9876 350.826 77.9876C467.239 77.9876 566.454 151.698 604.349 255.082C613.778 280.839 619.412 308.377 620.598 337.16C620.776 340.781 620.836 344.46 620.836 348.199Z" fill="url(#paint3_linear_84_2288)"/>
<defs>
<radialGradient id="paint0_radial_84_2288" cx="0" cy="0" r="1" gradientUnits="userSpaceOnUse" gradientTransform="translate(349.506 349.481) scale(323.397 323.639)">
<stop stop-color="#F8F8F8"/>
<stop offset="1" stop-color="white" stop-opacity="0"/>
</radialGradient>
<radialGradient id="paint1_radial_84_2288" cx="0" cy="0" r="1" gradientUnits="userSpaceOnUse" gradientTransform="translate(338.931 205.145) scale(412.283 412.591)">
<stop stop-color="#E8E8E8"/>
<stop offset="1" stop-color="#DFDFDF"/>
</radialGradient>
<linearGradient id="paint2_linear_84_2288" x1="298.672" y1="739.007" x2="296.034" y2="69.3725" gradientUnits="userSpaceOnUse">
<stop/>
<stop offset="1" stop-opacity="0.2"/>
</linearGradient>
<linearGradient id="paint3_linear_84_2288" x1="591.001" y1="77.8683" x2="426.6" y2="259.884" gradientUnits="userSpaceOnUse">
<stop stop-color="#B7B7B7"/>
<stop offset="0.557292" stop-color="#AEAEAE" stop-opacity="0.2"/>
</linearGradient>
</defs>
</svg>
