<svg width="665" height="665" viewBox="0 0 665 665" fill="none" xmlns="http://www.w3.org/2000/svg">
<g id="moon-halo-665x665">
<path id="Vector" d="M300.828 1.64692C43.2185 26.0946 -95.403 332.962 75.2081 542.546C154.025 639.772 285.707 687.877 415.527 654.396C485.092 636.441 545.178 596.692 588 544.917C775.029 319.919 598.889 -26.8096 300.828 1.64692Z" fill="url(#paint0_radial_253_4254)"/>
<g id="Group">
<path id="Vector_2" d="M583 333C583 347.606 581.737 361.937 579.32 375.829C578.002 383.297 576.41 390.654 574.488 397.902C563.834 437.656 543.626 473.457 516.498 502.778C506.668 513.43 495.905 523.204 484.318 531.99C473.664 540.116 462.297 547.419 450.38 553.789C434.235 562.409 417.047 569.273 399.035 574.215C378.003 579.98 355.872 583 333.027 583C322.538 583 312.215 582.341 302.11 581.078C217.432 570.646 145.823 517.823 109.249 444.52C94.9714 415.967 86.0204 384.34 83.659 350.9C83.2197 344.97 83 338.985 83 333C83 295.278 91.3471 259.532 106.284 227.465C119.628 198.803 138.299 173.105 160.924 151.636C181.847 131.759 206.229 115.451 233.082 103.756C263.67 90.4127 297.497 83 332.972 83C440.77 83 532.643 151.197 567.733 246.848C576.465 270.678 581.682 296.156 582.78 322.787C582.945 326.136 583 329.541 583 333Z" fill="url(#paint1_radial_253_4254)"/>
<g id="Group_2">
<path id="Vector_3" d="M109.195 444.52C107.493 441.115 105.845 437.601 104.308 434.087C92.9403 408.445 85.8014 380.606 83.6597 351.339C83.6597 351.175 83.6597 351.065 83.6047 350.9C88.6569 350.241 95.5762 352.547 100.628 366.769C107.163 385.273 137.586 430.353 109.195 444.52Z" fill="#BCBCBC"/>
<path id="Vector_4" d="M305.571 402.02C305.241 404.052 304.528 405.974 303.484 407.731C295.522 422.007 267.79 429.036 236.873 423.709C209.964 419.042 188.493 406.303 181.573 392.466C179.541 388.403 178.773 384.285 179.487 380.167C182.617 362.157 212.875 357.819 247.691 363.914C282.507 369.899 308.701 384.01 305.571 402.02Z" fill="#BCBCBC"/>
<path id="Vector_5" d="M231.49 282.978L231.435 283.033C224.516 293.466 202.935 283.912 177.839 267.494C157.355 254.096 142.748 240.753 141.759 230.595C141.54 228.289 142.034 226.093 143.297 224.116C150.216 213.573 177.674 212.86 202.825 229.332C227.976 245.805 238.41 272.436 231.49 282.978Z" fill="#BCBCBC"/>
<path id="Vector_6" d="M508.481 436.942C488.217 453.854 463.945 458.192 454.335 446.606C453.84 446.002 453.401 445.398 453.017 444.739C445.658 432.714 454.445 411.135 473.665 395.157C493.214 378.849 516.443 374.236 526.712 384.285C527.097 384.669 527.481 385.053 527.811 385.438C537.421 397.024 528.799 420.085 508.481 436.942Z" fill="#BCBCBC"/>
<path id="Vector_7" d="M362.297 298.297C341.814 314.495 321.001 323.445 309.085 308.4C307.931 306.973 306.998 305.435 306.174 303.788C298.596 288.523 306.064 266.395 324.626 251.734C345.109 235.536 373.061 227.904 392.116 252.009C392.226 252.174 392.391 252.338 392.445 252.503C403.648 267.383 382.616 282.264 362.297 298.297Z" fill="#BCBCBC"/>
<path id="Vector_8" d="M280.474 524.522C277.509 527.377 271.633 528.97 262.407 528.53C228.579 527.048 191.841 485.866 202.11 472.633C202.275 472.414 202.44 472.249 202.605 472.084C213.258 460.059 239.947 481.693 253.566 488.831C276.026 500.582 288.327 516.999 280.474 524.522Z" fill="#BCBCBC"/>
<path id="Vector_9" d="M413.148 494.157C413.203 501.954 402.605 510.191 385.911 510.904C355.378 512.222 337.97 506.347 333.851 495.475C333.412 494.322 333.137 493.114 332.973 491.796C331.49 478.563 359.442 480.814 374.159 480.046C401.781 478.563 413.093 486.14 413.148 494.157Z" fill="#BCBCBC"/>
<path id="Vector_10" d="M505.679 318.724C502.33 323.721 495.85 327.125 487.448 327.125C460.979 327.125 425.668 308.017 430.117 290.336C430.611 288.304 431.38 286.547 432.258 285.12C439.068 274.138 456.256 279.464 472.786 282.978C505.844 290.007 512.928 308.017 505.679 318.724Z" fill="#BCBCBC"/>
<path id="Vector_11" d="M419.738 188.864C419.408 188.095 419.244 187.217 419.134 186.283C418.475 178.761 425.888 167.779 440.331 163.825C449.721 161.245 462.407 161.574 470.259 166.406C473.719 168.548 476.19 171.513 477.124 175.576C479.32 185.679 424.406 200.559 419.738 188.864Z" fill="#BCBCBC"/>
<path id="Vector_12" d="M268.833 165.473C266.966 166.571 264.769 166.242 262.408 163.881C246.208 147.683 244.78 121.217 253.567 116.824C257.026 115.067 260.047 114.518 262.628 114.792C280.2 116.769 278.278 159.763 268.833 165.473Z" fill="#BCBCBC"/>
<path id="Vector_13" d="M546.207 257.995C545.054 258.544 543.681 258.654 542.198 258.269C536.047 256.677 528.03 247.232 525.614 233.011C524.241 224.665 528.414 216.648 533.851 214.122C539.892 211.267 547.525 215.221 550.6 233.011C552.412 243.114 552.138 255.03 546.207 257.995Z" fill="#BCBCBC"/>
<path id="Vector_14" d="M516.498 502.778C497.553 523.259 475.202 540.555 450.381 553.734C447.58 552.361 445.054 550.329 444.066 547.419C443.187 544.838 443.571 541.544 446.262 537.371C456.531 521.173 466.855 496.189 490.359 494.707C497.223 494.267 502.66 495.091 506.998 496.628C511.172 498.166 514.247 500.362 516.498 502.778Z" fill="#BCBCBC"/>
<path id="Vector_15" d="M398.981 574.159C377.948 579.925 355.818 582.945 332.973 582.945C322.484 582.945 312.16 582.286 302.056 581.023C302.056 578.058 302.605 574.873 304.418 572.183C306.175 569.602 309.085 567.516 313.863 566.747C331.491 563.782 340.332 552.031 365.318 553.514C378.278 554.282 387.339 560.597 392.995 566.472C395.796 569.437 397.718 572.183 398.981 574.159Z" fill="#BCBCBC"/>
<path id="Vector_16" d="M367.02 118.636C365.757 124.895 355.158 127.147 350.051 124.786C348.953 124.291 348.129 123.578 347.69 122.699C344.725 116.824 364.109 105.842 366.8 115.341C367.13 116.549 367.185 117.647 367.02 118.636Z" fill="#BCBCBC"/>
</g>
<g id="Group_3">
<path id="Vector_17" d="M290.358 449.132C283.768 445.838 278.606 443.257 280.088 456.49C281.571 469.723 291.84 472.688 300.681 472.688C309.468 472.688 296.233 452.097 290.358 449.132Z" fill="#9B9B9B"/>
<path id="Vector_18" d="M168.283 440.347C162.407 438.865 162.407 449.187 158.014 459.455C153.62 469.723 159.496 477.081 168.283 477.081C177.124 477.081 180.034 443.257 168.283 440.347Z" fill="#9B9B9B"/>
<path id="Vector_19" d="M141.813 307.962C136.157 305.381 130.062 302.086 128.579 307.962C127.096 313.837 140.331 330.035 147.689 330.035C155.048 330.035 157.958 315.319 141.813 307.962Z" fill="#9B9B9B"/>
<path id="Vector_20" d="M582.999 333C582.999 347.606 581.736 361.937 579.32 375.829C577.178 375.005 574.981 373.523 572.675 371.217C557.958 356.501 569.106 335.636 572.675 328.552C576.629 320.645 580.583 321.359 582.779 322.732C582.944 326.136 582.999 329.541 582.999 333Z" fill="#9B9B9B"/>
<path id="Vector_21" d="M431.544 349.143C423.032 348.1 418.31 355.019 431.544 360.894C444.778 366.824 443.296 350.626 431.544 349.143Z" fill="#9B9B9B"/>
<path id="Vector_22" d="M115.345 282.978C111.391 284.955 110.951 293.246 121.22 291.819C131.49 290.336 124.131 278.586 115.345 282.978Z" fill="#9B9B9B"/>
<path id="Vector_23" d="M324.186 180.079C319.793 181.561 313.917 185.954 324.186 187.436C334.455 188.864 328.579 178.596 324.186 180.079Z" fill="#9B9B9B"/>
<path id="Vector_24" d="M349.172 180.079C343.79 176.949 343.296 191.83 347.689 197.705C352.082 203.58 366.799 190.347 349.172 180.079Z" fill="#9B9B9B"/>
<path id="Vector_25" d="M396.234 528.585C393.049 529.299 391.84 534.461 400.627 537.426C409.468 540.336 409.468 525.62 396.234 528.585Z" fill="#9B9B9B"/>
<path id="Vector_26" d="M268.283 553.569C263.889 555.052 259.441 557.962 268.283 560.927C277.124 563.837 272.676 552.087 268.283 553.569Z" fill="#9B9B9B"/>
<path id="Vector_27" d="M275.641 337.393C268.172 337.777 284.482 347.661 288.875 349.143C293.268 350.626 306.503 335.91 275.641 337.393Z" fill="#9B9B9B"/>
<path id="Vector_28" d="M516.827 299.176C513.147 302.031 519.792 318.284 525.668 316.802C531.544 315.319 530.061 288.853 516.827 299.176Z" fill="#9B9B9B"/>
</g>
<g id="Group_4">
<path id="Vector_29" d="M398.542 402.24C397.883 404.766 397.059 407.237 396.235 409.433C391.952 420.909 366.636 425.412 359.937 420.14C359.772 420.03 359.607 419.866 359.442 419.701C353.567 413.826 359.278 399.055 362.408 391.752C366.801 381.484 388.877 374.127 396.235 377.037C402.166 379.508 401.397 391.533 398.542 402.24Z" fill="#BCBCBC"/>
<path id="Vector_30" d="M141.759 230.65C141.54 228.344 142.034 226.147 143.297 224.171C150.216 213.628 177.674 212.914 202.825 229.387C227.976 245.86 238.41 272.49 231.49 283.033L231.435 283.088C231.82 276.663 229.129 267.658 219.739 255.084C195.247 222.413 150.601 211.157 141.759 230.65Z" fill="#9B9B9B"/>
<path id="Vector_31" d="M305.571 402.021C305.241 404.052 304.528 405.974 303.484 407.731C302.88 405.205 297.444 385.383 272.677 377.092C246.977 368.526 212.38 360.894 191.787 377.092C185.198 382.253 182.397 387.58 181.573 392.412C179.541 388.348 178.773 384.23 179.487 380.112C182.617 362.102 212.875 357.764 247.691 363.859C282.507 369.899 308.701 384.011 305.571 402.021Z" fill="#9B9B9B"/>
<path id="Vector_32" d="M346.207 247.671C318.859 257.116 307.327 283.911 306.174 303.788C298.596 288.523 306.064 266.395 324.626 251.734C345.109 235.536 373.061 227.904 392.116 252.009C392.226 252.174 392.391 252.338 392.445 252.503C384.208 246.134 369.216 239.764 346.207 247.671Z" fill="#9B9B9B"/>
<path id="Vector_33" d="M398.541 402.24C398.267 391.588 395.631 379.563 384.483 382.967C373.061 386.481 360.101 407.182 359.991 420.14C359.827 420.03 359.662 419.866 359.497 419.701C353.621 413.826 359.332 399.055 362.463 391.752C366.856 381.484 388.932 374.127 396.29 377.037C402.166 379.508 401.397 391.533 398.541 402.24Z" fill="#9B9B9B"/>
<path id="Vector_34" d="M505.68 318.724C509.03 299.341 477.948 293.081 462.407 287.426C447.031 281.825 436.487 283.802 432.204 285.12C439.014 274.138 456.202 279.464 472.731 282.978C505.845 290.007 512.929 308.017 505.68 318.724Z" fill="#9B9B9B"/>
<path id="Vector_35" d="M419.739 188.864C419.41 188.096 419.245 187.217 419.135 186.284C428.416 192.434 452.194 187.437 465.318 181.507C474.709 177.224 473.171 170.964 470.261 166.462C473.72 168.603 476.192 171.568 477.125 175.631C479.322 185.68 424.407 200.56 419.739 188.864Z" fill="#9B9B9B"/>
<path id="Vector_36" d="M268.833 165.473C266.966 166.571 264.769 166.242 262.408 163.881C246.208 147.683 244.78 121.217 253.567 116.824C257.026 115.067 260.047 114.518 262.628 114.792C259.058 115.451 253.567 118.581 253.567 131.539C253.567 146.475 260.76 158.719 268.833 165.473Z" fill="#9B9B9B"/>
<path id="Vector_37" d="M367.02 118.636C366.526 116.11 364.549 113.694 358.014 115.341C352.687 116.659 350.655 120.722 350.051 124.786C348.953 124.291 348.129 123.578 347.69 122.699C344.725 116.824 364.109 105.842 366.8 115.341C367.13 116.549 367.185 117.647 367.02 118.636Z" fill="#9B9B9B"/>
<path id="Vector_38" d="M280.474 524.522C279.211 516.615 271.962 508.928 259.442 502.064C243.242 493.224 231.49 484.439 221.221 477.081C215.839 473.237 208.426 472.194 202.605 472.084C213.258 460.059 239.947 481.693 253.566 488.831C276.026 500.582 288.327 516.999 280.474 524.522Z" fill="#9B9B9B"/>
<path id="Vector_39" d="M413.148 494.157C410.787 488.282 403.648 485.866 391.787 485.866H350.601C334.84 485.866 333.851 494.981 333.851 495.42C333.412 494.267 333.137 493.059 332.973 491.741C331.49 478.508 359.442 480.759 374.159 479.991C401.781 478.563 413.093 486.14 413.148 494.157Z" fill="#9B9B9B"/>
<path id="Vector_40" d="M392.995 566.527C395.796 569.382 397.718 572.183 398.981 574.159C377.948 579.925 355.818 582.945 332.973 582.945C322.484 582.945 312.16 582.286 302.056 581.023C302.056 578.058 302.605 574.873 304.418 572.183C353.292 583.714 381.463 573.006 392.995 566.527Z" fill="#9B9B9B"/>
<path id="Vector_41" d="M516.498 502.778C497.552 523.259 475.202 540.555 450.38 553.733C447.579 552.361 445.053 550.329 444.065 547.419C485.086 532.044 502.824 504.206 506.997 496.683C511.171 498.166 514.246 500.362 516.498 502.778Z" fill="#9B9B9B"/>
<path id="Vector_42" d="M526.712 384.285C523.418 383.132 499.969 376.598 472.676 407.951C458.892 423.819 454.115 436.119 453.017 444.74C445.658 432.715 454.445 411.135 473.665 395.157C493.214 378.904 516.443 374.237 526.712 384.285Z" fill="#9B9B9B"/>
<path id="Vector_43" d="M542.198 258.214C536.047 256.622 528.03 247.177 525.614 232.956C524.241 224.61 528.414 216.593 533.851 214.067C531.49 217.197 529.293 221.974 530.007 228.563C531.27 239.216 535.279 249.868 542.198 258.214Z" fill="#9B9B9B"/>
<path id="Vector_44" d="M109.195 444.52C107.493 441.115 105.845 437.601 104.308 434.087C111.337 427.718 118.256 416.077 109.47 397.683C98.5965 374.895 93.3247 355.293 83.6597 351.339C83.6597 351.175 83.6597 351.065 83.6047 350.9C88.6569 350.241 95.5762 352.547 100.628 366.769C107.163 385.273 137.586 430.353 109.195 444.52Z" fill="#9B9B9B"/>
</g>
<path id="Vector_45" opacity="0.45" d="M484.318 531.99C473.664 540.116 462.297 547.419 450.38 553.789C434.235 562.409 417.047 569.273 399.035 574.215C378.003 579.98 355.872 583 333.027 583C322.538 583 312.215 582.341 302.11 581.078C217.432 570.646 145.823 517.823 109.249 444.52C94.9714 415.967 86.0204 384.34 83.659 350.9C83.2197 344.97 83 338.985 83 333C83 295.278 91.3471 259.532 106.284 227.465C119.628 198.803 138.299 173.106 160.924 151.636C91.1823 484.219 347.69 530.288 484.318 531.99Z" fill="url(#paint2_linear_253_4254)"/>
<path id="Vector_46" d="M583 333C583 347.606 581.737 361.937 579.321 375.829C578.003 383.297 576.41 390.654 574.488 397.902C565.812 196.826 429.623 82.5058 233.083 103.756C263.67 90.4127 297.498 83 332.973 83C440.771 83 532.643 151.197 567.734 246.848C576.465 270.678 581.682 296.156 582.78 322.787C582.945 326.136 583 329.541 583 333Z" fill="url(#paint3_linear_253_4254)"/>
</g>
</g>
<defs>
<radialGradient id="paint0_radial_253_4254" cx="0" cy="0" r="1" gradientUnits="userSpaceOnUse" gradientTransform="translate(332.505 332.482) scale(307.666 307.897)">
<stop stop-color="#F8F8F8"/>
<stop offset="1" stop-color="white" stop-opacity="0"/>
</radialGradient>
<radialGradient id="paint1_radial_253_4254" cx="0" cy="0" r="1" gradientUnits="userSpaceOnUse" gradientTransform="translate(321.958 200.646) scale(381.772 381.73)">
<stop stop-color="#E8E8E8"/>
<stop offset="1" stop-color="#DFDFDF"/>
</radialGradient>
<linearGradient id="paint2_linear_253_4254" x1="284.678" y1="694.576" x2="282.239" y2="75.0296" gradientUnits="userSpaceOnUse">
<stop/>
<stop offset="1" stop-opacity="0.2"/>
</linearGradient>
<linearGradient id="paint3_linear_253_4254" x1="555.373" y1="82.8897" x2="403.283" y2="251.421" gradientUnits="userSpaceOnUse">
<stop stop-color="#B7B7B7"/>
<stop offset="0.557292" stop-color="#AEAEAE" stop-opacity="0.2"/>
</linearGradient>
</defs>
</svg>
