<svg width="346" height="639" viewBox="0 0 346 639" fill="none" xmlns="http://www.w3.org/2000/svg">
<g clip-path="url(#clip0_73_891)" filter="url(#filter0_d_73_891)">
<path d="M8.16162 1.52309C-222.331 24.1326 -346.361 307.927 -193.709 501.753C-123.188 591.669 -5.36714 636.157 110.788 605.193C173.03 588.588 226.791 551.828 265.106 503.946C432.447 295.865 274.848 -24.7938 8.16162 1.52309Z" fill="url(#paint0_radial_73_891)"/>
<path d="M267.465 306.355C267.465 320.245 266.304 333.873 264.083 347.084C262.871 354.185 261.407 361.182 259.64 368.075C249.847 405.879 231.271 439.924 206.333 467.807C197.297 477.937 187.403 487.232 176.752 495.586C166.959 503.314 156.509 510.259 145.555 516.316C130.714 524.514 114.914 531.041 98.3564 535.741C79.0225 541.223 58.6789 544.095 37.6791 544.095C28.0374 544.095 18.5472 543.469 9.25887 542.268C-68.5816 532.347 -134.408 482.115 -168.028 412.406C-181.152 385.254 -189.381 355.177 -191.551 323.378C-191.955 317.738 -192.157 312.047 -192.157 306.355C-192.157 270.483 -184.484 236.49 -170.753 205.996C-158.487 178.739 -141.323 154.302 -120.526 133.886C-101.293 114.984 -78.8795 99.4754 -54.1947 88.3534C-26.0773 75.6649 5.01842 68.6157 37.6286 68.6157C136.721 68.6157 221.174 133.468 253.431 224.428C261.458 247.09 266.253 271.318 267.263 296.643C267.414 299.828 267.465 303.066 267.465 306.355Z" fill="url(#paint1_radial_73_891)"/>
<path d="M12.44 371.991C12.1372 373.923 11.481 375.751 10.5218 377.422C3.20222 390.998 -22.2903 397.682 -50.7106 392.617C-75.4459 388.178 -95.1837 376.064 -101.544 362.906C-103.412 359.042 -104.119 355.126 -103.462 351.209C-100.585 334.082 -72.7704 329.957 -40.766 335.753C-8.76159 341.445 15.3174 354.864 12.44 371.991Z" fill="#BCBCBC"/>
<path d="M198.964 405.201C180.337 421.283 158.024 425.408 149.19 414.391C148.736 413.816 148.332 413.242 147.979 412.615C141.214 401.18 149.291 380.659 166.959 365.464C184.93 349.956 206.283 345.57 215.723 355.125C216.077 355.491 216.43 355.856 216.733 356.222C225.567 367.239 217.641 389.17 198.964 405.201Z" fill="#BCBCBC"/>
<path d="M64.5855 273.355C45.7564 288.759 26.6243 297.27 15.6701 282.963C14.61 281.605 13.7519 280.143 12.9947 278.577C6.02841 264.061 12.8937 243.018 29.956 229.076C48.7851 213.672 74.4795 206.414 91.9962 229.337C92.0971 229.494 92.2486 229.65 92.299 229.807C102.597 243.958 83.2631 258.108 64.5855 273.355Z" fill="#BCBCBC"/>
<path d="M111.33 459.61C111.381 467.024 101.638 474.857 86.292 475.536C58.225 476.789 42.2227 471.202 38.4367 460.863C38.0329 459.766 37.7805 458.618 37.629 457.364C36.266 444.78 61.9604 446.921 75.4891 446.19C100.881 444.78 111.28 451.986 111.33 459.61Z" fill="#BCBCBC"/>
<path d="M196.389 292.779C193.309 297.531 187.353 300.769 179.629 300.769C155.298 300.769 122.839 282.597 126.928 265.784C127.382 263.852 128.089 262.181 128.897 260.823C135.156 250.38 150.957 255.445 166.151 258.787C196.54 265.47 203.052 282.597 196.389 292.779Z" fill="#BCBCBC"/>
<path d="M117.387 169.288C117.084 168.557 116.933 167.722 116.832 166.834C116.226 159.681 123.041 149.238 136.317 145.478C144.949 143.024 156.61 143.337 163.829 147.932C167.009 149.969 169.281 152.788 170.139 156.652C172.158 166.26 121.678 180.41 117.387 169.288Z" fill="#BCBCBC"/>
<path d="M233.643 235.029C232.583 235.551 231.321 235.655 229.958 235.29C224.304 233.775 216.934 224.794 214.713 211.27C213.451 203.333 217.288 195.71 222.285 193.308C227.838 190.593 234.855 194.352 237.682 211.27C239.347 220.878 239.095 232.209 233.643 235.029Z" fill="#BCBCBC"/>
<path d="M206.334 467.808C188.918 487.284 168.373 503.732 145.556 516.264C142.981 514.959 140.659 513.027 139.751 510.259C138.943 507.805 139.296 504.672 141.77 500.704C151.21 485.3 160.7 461.542 182.305 460.132C188.615 459.714 193.613 460.497 197.601 461.959C201.437 463.421 204.264 465.51 206.334 467.808Z" fill="#BCBCBC"/>
<path d="M98.3066 535.688C78.9727 541.171 58.6291 544.043 37.6293 544.043C27.9876 544.043 18.4974 543.416 9.20905 542.215C9.20905 539.396 9.71389 536.367 11.3797 533.809C12.9951 531.355 15.6706 529.37 20.0623 528.639C36.2665 525.82 44.3937 514.645 67.3622 516.055C79.2755 516.786 87.6048 522.791 92.8043 528.378C95.3788 531.198 97.1455 533.809 98.3066 535.688Z" fill="#BCBCBC"/>
<path d="M68.9268 102.504C67.7658 108.457 58.0231 110.598 53.3285 108.352C52.3189 107.882 51.5617 107.204 51.1579 106.368C48.4319 100.781 66.2513 90.3378 68.7249 99.3711C69.0278 100.52 69.0783 101.564 68.9268 102.504Z" fill="#BCBCBC"/>
<path d="M-1.54467 416.793C-7.60229 413.66 -12.3475 411.206 -10.9845 423.79C-9.62155 436.374 -0.181761 439.193 7.94555 439.193C16.0224 439.193 3.85671 419.612 -1.54467 416.793Z" fill="#9B9B9B"/>
<path d="M267.464 306.355C267.464 320.245 266.303 333.873 264.082 347.084C262.113 346.301 260.094 344.891 257.974 342.698C244.445 328.704 254.693 308.862 257.974 302.126C261.609 294.607 265.243 295.286 267.262 296.591C267.414 299.828 267.464 303.066 267.464 306.355Z" fill="#9B9B9B"/>
<path d="M128.24 321.707C120.416 320.715 116.074 327.294 128.24 332.881C140.406 338.521 139.043 323.117 128.24 321.707Z" fill="#9B9B9B"/>
<path d="M29.552 160.934C25.5136 162.344 20.1122 166.521 29.552 167.931C38.9918 169.288 33.5904 159.524 29.552 160.934Z" fill="#9B9B9B"/>
<path d="M52.5198 160.934C47.5728 157.957 47.1185 172.108 51.1569 177.695C55.1954 183.282 68.724 170.698 52.5198 160.934Z" fill="#9B9B9B"/>
<path d="M95.7811 492.349C92.8532 493.028 91.7426 497.936 99.8194 500.756C107.947 503.523 107.947 489.529 95.7811 492.349Z" fill="#9B9B9B"/>
<path d="M-15.073 310.533C-21.9383 310.898 -6.9457 320.297 -2.90729 321.707C1.13112 323.117 13.2968 309.123 -15.073 310.533Z" fill="#9B9B9B"/>
<path d="M206.636 274.19C203.254 276.905 209.362 292.361 214.763 290.952C220.165 289.542 218.801 264.374 206.636 274.19Z" fill="#9B9B9B"/>
<path d="M97.903 372.2C97.2972 374.602 96.5401 376.952 95.7829 379.041C91.8454 389.954 68.574 394.235 62.4154 389.223C62.264 389.118 62.1126 388.962 61.9611 388.805C56.5598 383.218 61.8097 369.172 64.6871 362.227C68.7255 352.463 89.0186 345.466 95.7829 348.233C101.235 350.583 100.528 362.018 97.903 372.2Z" fill="#BCBCBC"/>
<path d="M12.44 371.991C12.1372 373.923 11.481 375.751 10.5218 377.422C9.96657 375.02 4.96902 356.17 -17.7975 348.285C-41.4222 340.139 -73.2248 332.881 -92.1548 348.285C-98.2125 353.193 -100.787 358.258 -101.544 362.853C-103.412 358.989 -104.119 355.073 -103.462 351.157C-100.585 334.03 -72.7704 329.905 -40.766 335.701C-8.76159 341.445 15.3174 354.864 12.44 371.991Z" fill="#9B9B9B"/>
<path d="M49.7947 225.212C24.6556 234.193 14.0548 259.675 12.9947 278.577C6.02841 264.061 12.8937 243.018 29.956 229.076C48.7851 213.672 74.4796 206.414 91.9962 229.337C92.0971 229.494 92.2486 229.65 92.299 229.807C84.727 223.75 70.9459 217.693 49.7947 225.212Z" fill="#9B9B9B"/>
<path d="M97.9029 372.2C97.6505 362.07 95.2274 350.635 84.98 353.872C74.4801 357.214 62.5668 376.9 62.4658 389.223C62.3144 389.118 62.163 388.962 62.0115 388.805C56.6102 383.218 61.8601 369.172 64.7375 362.227C68.7759 352.463 89.069 345.466 95.8333 348.233C101.235 350.583 100.528 362.018 97.9029 372.2Z" fill="#9B9B9B"/>
<path d="M196.389 292.779C199.469 274.347 170.897 268.395 156.611 263.016C142.477 257.69 132.784 259.57 128.847 260.823C135.106 250.38 150.907 255.445 166.101 258.787C196.541 265.47 203.053 282.597 196.389 292.779Z" fill="#9B9B9B"/>
<path d="M117.389 169.288C117.086 168.557 116.934 167.722 116.833 166.834C125.364 172.682 147.222 167.931 159.287 162.291C167.919 158.219 166.506 152.266 163.83 147.984C167.01 150.021 169.282 152.84 170.14 156.704C172.159 166.26 121.679 180.41 117.389 169.288Z" fill="#9B9B9B"/>
<path d="M68.9268 102.504C68.4725 100.102 66.6553 97.8047 60.6482 99.3711C55.7516 100.624 53.8838 104.488 53.3285 108.352C52.3189 107.882 51.5617 107.204 51.1579 106.368C48.4319 100.781 66.2513 90.3378 68.7249 99.3711C69.0278 100.52 69.0783 101.564 68.9268 102.504Z" fill="#9B9B9B"/>
<path d="M111.33 459.61C109.159 454.023 102.597 451.725 91.6934 451.725H53.8333C39.3454 451.725 38.4367 460.393 38.4367 460.811C38.0329 459.714 37.7805 458.565 37.629 457.312C36.266 444.728 61.9604 446.869 75.4891 446.138C100.881 444.78 111.28 451.986 111.33 459.61Z" fill="#9B9B9B"/>
<path d="M92.8043 528.43C95.3788 531.146 97.1455 533.809 98.3066 535.688C78.9727 541.171 58.6291 544.043 37.6293 544.043C27.9876 544.043 18.4974 543.416 9.20905 542.215C9.20905 539.396 9.71389 536.367 11.3797 533.809C56.3071 544.774 82.2034 534.592 92.8043 528.43Z" fill="#9B9B9B"/>
<path d="M206.333 467.808C188.918 487.284 168.372 503.733 145.555 516.264C142.981 514.959 140.659 513.027 139.75 510.26C177.459 495.639 193.764 469.165 197.6 462.012C201.437 463.422 204.264 465.51 206.333 467.808Z" fill="#9B9B9B"/>
<path d="M215.723 355.125C212.694 354.029 191.139 347.815 166.051 377.63C153.38 392.721 148.988 404.417 147.979 412.615C141.214 401.18 149.291 380.659 166.959 365.464C184.93 350.008 206.283 345.57 215.723 355.125Z" fill="#9B9B9B"/>
<path d="M229.958 235.237C224.304 233.723 216.934 224.742 214.713 211.218C213.451 203.281 217.288 195.658 222.285 193.256C220.115 196.232 218.095 200.775 218.751 207.041C219.913 217.171 223.598 227.3 229.958 235.237Z" fill="#9B9B9B"/>
<path opacity="0.45" d="M176.752 495.586C166.959 503.314 156.509 510.259 145.555 516.316C130.714 524.514 114.914 531.041 98.3564 535.74C79.0225 541.223 58.6789 544.095 37.6792 544.095C28.0374 544.095 18.5472 543.468 9.25888 542.267C-68.5815 532.346 -134.408 482.115 -168.027 412.406C-181.152 385.254 -189.381 355.177 -191.551 323.378C-191.955 317.738 -192.157 312.047 -192.157 306.355C-192.157 270.483 -184.484 236.49 -170.753 205.996C-158.487 178.739 -141.323 154.302 -120.526 133.886C-184.635 450.158 51.1575 493.968 176.752 495.586Z" fill="url(#paint2_linear_73_891)"/>
<path d="M267.465 306.355C267.465 320.245 266.304 333.873 264.083 347.084C262.872 354.185 261.408 361.182 259.641 368.075C251.665 176.86 126.474 68.1458 -54.1943 88.3534C-26.0769 75.6649 5.01884 68.6157 37.629 68.6157C136.722 68.6157 221.175 133.468 253.432 224.428C261.458 247.09 266.254 271.318 267.263 296.643C267.415 299.828 267.465 303.066 267.465 306.355Z" fill="url(#paint3_linear_73_891)"/>
</g>
<defs>
<filter id="filter0_d_73_891" x="-272.554" y="0" width="618.107" height="638.107" filterUnits="userSpaceOnUse" color-interpolation-filters="sRGB">
<feFlood flood-opacity="0" result="BackgroundImageFix"/>
<feColorMatrix in="SourceAlpha" type="matrix" values="0 0 0 0 0 0 0 0 0 0 0 0 0 0 0 0 0 0 127 0" result="hardAlpha"/>
<feOffset dy="11.5537"/>
<feGaussianBlur stdDeviation="5.77686"/>
<feComposite in2="hardAlpha" operator="out"/>
<feColorMatrix type="matrix" values="0 0 0 0 0 0 0 0 0 0 0 0 0 0 0 0 0 0 0.25 0"/>
<feBlend mode="normal" in2="BackgroundImageFix" result="effect1_dropShadow_73_891"/>
<feBlend mode="normal" in="SourceGraphic" in2="effect1_dropShadow_73_891" result="shape"/>
</filter>
<radialGradient id="paint0_radial_73_891" cx="0" cy="0" r="1" gradientUnits="userSpaceOnUse" gradientTransform="translate(36.5047 307.483) scale(275.28 284.747)">
<stop stop-color="#F8F8F8"/>
<stop offset="1" stop-color="white" stop-opacity="0"/>
</radialGradient>
<radialGradient id="paint1_radial_73_891" cx="0" cy="0" r="1" gradientUnits="userSpaceOnUse" gradientTransform="translate(27.5039 180.492) scale(350.942 363.01)">
<stop stop-color="#E8E8E8"/>
<stop offset="1" stop-color="#DFDFDF"/>
</radialGradient>
<linearGradient id="paint2_linear_73_891" x1="-6.76554" y1="650.199" x2="-9.16473" y2="61.0366" gradientUnits="userSpaceOnUse">
<stop/>
<stop offset="1" stop-opacity="0.2"/>
</linearGradient>
<linearGradient id="paint3_linear_73_891" x1="242.069" y1="68.5108" x2="97.0176" y2="223.882" gradientUnits="userSpaceOnUse">
<stop stop-color="#B7B7B7"/>
<stop offset="0.557292" stop-color="#AEAEAE" stop-opacity="0.2"/>
</linearGradient>
<clipPath id="clip0_73_891">
<rect width="595" height="615" fill="white" transform="translate(-261)"/>
</clipPath>
</defs>
</svg>
