<svg width="46" height="53" viewBox="0 0 46 53" fill="none" xmlns="http://www.w3.org/2000/svg">
<path d="M19.1252 38.0205L18.489 37.284L18.4164 37.3484L18.3578 37.4261C16.8087 39.4786 16.5174 41.5173 16.8437 43.2383C17.1619 44.9166 18.055 46.2396 18.8132 46.9717L19.2079 47.3529L19.734 47.2075C20.1014 47.106 20.4283 46.8979 20.7062 46.6603C20.9072 47.4353 21.1743 48.085 21.4417 48.6068C21.6967 49.1045 21.9514 49.4849 22.1482 49.7467C22.2467 49.8777 22.3308 49.9794 22.3937 50.0517C22.4251 50.0878 22.4512 50.1167 22.4712 50.1381C22.4812 50.1489 22.4896 50.1578 22.4964 50.1649L22.5053 50.1741L22.5088 50.1777L22.5103 50.1793L22.511 50.18C22.5114 50.1803 22.5117 50.1806 23.1947 49.4886L22.5117 50.1806L23.1948 50.8726L23.8778 50.1805C24.9059 49.1388 25.445 47.628 25.7329 46.4959C25.7444 46.4507 25.7555 46.4059 25.7664 46.3615C25.9203 46.4655 26.0885 46.5603 26.2691 46.6346C26.7129 46.8172 27.2908 46.8946 27.8718 46.6003L27.9711 46.55L28.0566 46.4781C29.2343 45.4879 29.8899 44.3975 30.1475 43.2841C30.4025 42.1816 30.2468 41.1466 29.9558 40.2886C29.666 39.4342 29.2315 38.7227 28.8795 38.2323C28.7018 37.9846 28.5405 37.7871 28.4214 37.649C28.3617 37.5799 28.3122 37.5252 28.2761 37.4863C28.258 37.4668 28.2433 37.4512 28.2322 37.4397L28.2184 37.4254L28.2137 37.4205L28.2118 37.4187L28.2111 37.4179C28.2107 37.4175 28.2104 37.4172 27.5274 38.1093L28.2104 37.4172L28.1952 37.4018L28.1794 37.3872C25.8077 35.1895 23.341 35.1449 21.501 35.6796C20.6013 35.941 19.8579 36.3363 19.342 36.6624C19.0825 36.8264 18.8764 36.9756 18.7321 37.0864C18.6598 37.1419 18.6028 37.188 18.562 37.2219C18.5415 37.2388 18.5252 37.2527 18.513 37.2632L18.4978 37.2763L18.4926 37.2808L18.4906 37.2826L18.4897 37.2834C18.4893 37.2837 18.489 37.284 19.1252 38.0205Z" fill="#FFDE12" stroke="#FF8F00" stroke-width="1.94468"/>
<path d="M17.0027 38.9167C11.1647 32.1078 8.5979 11.5902 23.3671 0.389075C34.4234 9.07898 37.6976 27.6254 29.8271 39.3634C24.697 35.4216 18.2408 37.6622 17.0027 38.9167Z" fill="#9747FF"/>
<path d="M34.6036 45.2763C38.1409 40.4377 37.4325 31.1196 33.9828 27.984C33.9828 27.984 32.2143 31.5681 31.1535 36.944C32.1559 37.6607 34.2493 40.3305 34.6036 45.2763Z" fill="#7D13FF"/>
<path d="M12.4028 45.5459C8.6439 40.3268 9.19997 30.6962 12.7155 27.635C12.7155 27.635 14.6171 31.4534 15.8194 37.0918C14.7941 37.7795 12.6754 40.4331 12.4028 45.5459Z" fill="#7D13FF"/>
<path d="M23.1929 29.9563C23.1929 29.9563 26.7312 35.6902 23.2827 44.0231C23.2827 44.0231 19.4788 35.8701 23.1929 29.9563Z" fill="#7D13FF"/>
<path d="M27.0193 15.1474C29.0357 17.1898 29.036 20.5013 27.02 22.544C25.004 24.5867 21.735 24.5871 19.7186 22.5447C17.7022 20.5024 17.7019 17.1909 19.7179 15.1481C21.734 13.1054 25.0029 13.1051 27.0193 15.1474Z" fill="#E6E6E6" stroke="#2A2946" stroke-width="1.94468"/>
</svg>
