<svg width="381" height="380" viewBox="0 0 381 380" fill="none" xmlns="http://www.w3.org/2000/svg">
<g clip-path="url(#clip0_361_3906)">
<path d="M57.8328 244.727L56.9321 244.224L56.8831 244.315L56.8529 244.413C56.054 247.019 56.503 249.156 57.4519 250.752C58.3773 252.308 59.7466 253.302 60.7672 253.756L61.2985 253.993L61.7699 253.657C62.099 253.423 62.3492 253.097 62.5399 252.76C63.021 253.459 63.5226 254.009 63.9782 254.432C64.4126 254.835 64.8042 255.122 65.0952 255.311C65.2408 255.406 65.3614 255.477 65.4503 255.526C65.4946 255.551 65.5311 255.57 65.5588 255.584C65.5727 255.591 65.5843 255.597 65.5936 255.602L65.6058 255.608L65.6106 255.61L65.6127 255.611C65.6132 255.611 65.6145 255.612 66.044 254.675L65.6145 255.612L66.5458 256.053L66.9752 255.116C67.6216 253.706 67.6109 252.006 67.4872 250.774C67.4823 250.725 67.4771 250.676 67.4719 250.628C67.6629 250.676 67.8648 250.709 68.0716 250.718C68.5799 250.739 69.1836 250.606 69.6556 250.102L69.7363 250.016L69.7954 249.914C70.6094 248.5 70.8672 247.177 70.7201 245.974C70.5744 244.784 70.0441 243.809 69.4431 243.06C68.8447 242.314 68.154 241.763 67.6256 241.402C67.3588 241.22 67.1265 241.081 66.9578 240.987C66.8733 240.94 66.8042 240.903 66.7541 240.878C66.729 240.865 66.7087 240.854 66.6935 240.847L66.6745 240.838L66.6681 240.835L66.6655 240.834L66.6646 240.833C66.664 240.833 66.6636 240.833 66.2342 241.77L66.6646 240.833L66.6429 240.823L66.6218 240.814C63.4627 239.485 60.9895 240.335 59.3506 241.534C58.5492 242.121 57.952 242.784 57.5564 243.296C57.3573 243.553 57.2061 243.777 57.1026 243.939C57.0507 244.021 57.0106 244.087 56.9823 244.136C56.968 244.16 56.9568 244.18 56.9484 244.195L56.9381 244.213L56.9345 244.22L56.9332 244.222L56.9321 244.224C56.9318 244.225 56.9321 244.224 57.8328 244.727Z" fill="#FFDE12"/>
<path d="M56.9321 244.224L57.8328 244.727C56.9321 244.224 56.9318 244.225 56.9321 244.224ZM56.9321 244.224L56.8831 244.315L56.8529 244.413C56.054 247.019 56.503 249.156 57.4519 250.752C58.3773 252.308 59.7466 253.302 60.7672 253.756L61.2985 253.993L61.7699 253.657C62.099 253.423 62.3492 253.097 62.5399 252.76C63.021 253.459 63.5226 254.009 63.9782 254.432C64.4126 254.835 64.8042 255.122 65.0952 255.311C65.2408 255.406 65.3614 255.477 65.4503 255.526C65.4946 255.551 65.5311 255.57 65.5588 255.584C65.5727 255.591 65.5843 255.597 65.5936 255.602L65.6058 255.608L65.6106 255.61L65.6127 255.611C65.6132 255.611 65.6145 255.612 66.044 254.675L65.6145 255.612L66.5458 256.053L66.9752 255.116C67.6216 253.706 67.6109 252.006 67.4872 250.774C67.4823 250.725 67.4771 250.676 67.4719 250.628C67.6629 250.676 67.8648 250.709 68.0716 250.718C68.5799 250.739 69.1836 250.606 69.6556 250.102L69.7363 250.016L69.7954 249.914C70.6094 248.5 70.8672 247.177 70.7201 245.974C70.5744 244.784 70.0441 243.809 69.4431 243.06C68.8447 242.314 68.154 241.763 67.6256 241.402C67.3588 241.22 67.1265 241.081 66.9578 240.987C66.8733 240.94 66.8042 240.903 66.7541 240.878C66.729 240.865 66.7087 240.854 66.6935 240.847L66.6745 240.838L66.6681 240.835L66.6655 240.834L66.6646 240.833M56.9321 244.224L56.9332 244.222L56.9345 244.22L56.9381 244.213L56.9484 244.195C56.9568 244.18 56.968 244.16 56.9823 244.136C57.0106 244.087 57.0507 244.021 57.1026 243.939C57.2061 243.777 57.3573 243.553 57.5564 243.296C57.952 242.784 58.5492 242.121 59.3506 241.534C60.9895 240.335 63.4627 239.485 66.6218 240.814L66.6429 240.823L66.6646 240.833M66.6646 240.833C66.664 240.833 66.6636 240.833 66.2342 241.77L66.6646 240.833Z" stroke="#FF8F00" stroke-width="2.06136"/>
<path d="M56.0437 246.389C47.7602 241.724 37.765 222.217 48.4153 205.706C62.5787 210.353 72.5638 227.64 68.9797 242.185C62.4407 240.119 56.8222 244.691 56.0437 246.389Z" fill="#9747FF"/>
<path d="M75.881 246.343C77.6502 240.241 73.5664 231.216 68.9935 229.344C68.9935 229.344 68.5313 233.555 69.4237 239.294C70.682 239.645 73.7351 241.545 75.881 246.343Z" fill="#7D13FF"/>
<path d="M53.8651 254.66C48.2288 250.824 45.2912 241.03 47.6831 236.706C47.6831 236.706 50.9616 239.82 54.2033 245.001C53.4314 246.057 52.283 249.469 53.8651 254.66Z" fill="#7D13FF"/>
<path d="M58.961 235.22C58.961 235.22 64.5641 239.649 64.1502 249.199C64.1502 249.199 57.4054 242.457 58.961 235.22Z" fill="#7D13FF"/>
<path d="M57.4037 219.082C60.1526 220.385 61.3535 223.684 60.0859 226.449C58.8184 229.215 55.5624 230.4 52.8135 229.097C50.0646 227.794 48.8637 224.495 50.1312 221.73C51.3988 218.964 54.6548 217.779 57.4037 219.082Z" fill="#E6E6E6" stroke="#2A2946" stroke-width="2.06136"/>
</g>
<defs>
<clipPath id="clip0_361_3906">
<rect width="48.76" height="56.18" fill="white" transform="translate(24.9988 213.79) rotate(-20)"/>
</clipPath>
</defs>
</svg>
