<svg width="294" height="279" viewBox="0 0 294 279" fill="none" xmlns="http://www.w3.org/2000/svg">
<path d="M19.1253 147.02L18.4891 146.284L18.4165 146.348L18.3579 146.426C16.8088 148.479 16.5175 150.517 16.8438 152.238C17.162 153.917 18.0551 155.24 18.8133 155.972L19.208 156.353L19.7341 156.207C20.1015 156.106 20.4284 155.898 20.7063 155.66C20.9073 156.435 21.1744 157.085 21.4418 157.607C21.6968 158.104 21.9515 158.485 22.1483 158.747C22.2468 158.878 22.3309 158.979 22.3938 159.052C22.4252 159.088 22.4513 159.117 22.4713 159.138C22.4813 159.149 22.4897 159.158 22.4965 159.165L22.5054 159.174L22.5089 159.178L22.5104 159.179C22.5108 159.18 22.5118 159.181 23.1948 158.489L22.5118 159.181L23.1949 159.873L23.8779 159.18C24.906 158.139 25.4451 156.628 25.733 155.496C25.7445 155.451 25.7556 155.406 25.7665 155.361C25.9204 155.465 26.0886 155.56 26.2692 155.635C26.713 155.817 27.2909 155.895 27.8719 155.6L27.9712 155.55L28.0567 155.478C29.2344 154.488 29.89 153.397 30.1476 152.284C30.4026 151.182 30.2469 150.147 29.9559 149.289C29.6661 148.434 29.2316 147.723 28.8796 147.232C28.7019 146.985 28.5406 146.787 28.4215 146.649C28.3618 146.58 28.3123 146.525 28.2762 146.486C28.2581 146.467 28.2434 146.451 28.2323 146.44L28.2185 146.425L28.2138 146.42L28.2119 146.419L28.2112 146.418C28.2108 146.417 28.2105 146.417 27.5275 147.109L28.2112 146.418L28.1953 146.402L28.1795 146.387C25.8078 144.189 23.3411 144.145 21.5011 144.68C20.6014 144.941 19.858 145.336 19.3421 145.662C19.0826 145.826 18.8765 145.976 18.7322 146.086C18.6599 146.142 18.6029 146.188 18.5621 146.222C18.5416 146.239 18.5253 146.253 18.5131 146.263L18.4979 146.276L18.4927 146.281L18.4907 146.283L18.4891 146.284C18.4887 146.284 18.4891 146.284 19.1253 147.02Z" fill="#FFDE12"/>
<path d="M18.4891 146.284L19.1253 147.02C18.4891 146.284 18.4887 146.284 18.4891 146.284ZM18.4891 146.284L18.4165 146.348L18.3579 146.426C16.8088 148.479 16.5175 150.517 16.8438 152.238C17.162 153.917 18.0551 155.24 18.8133 155.972L19.208 156.353L19.7341 156.207C20.1015 156.106 20.4284 155.898 20.7063 155.66C20.9073 156.435 21.1744 157.085 21.4418 157.607C21.6968 158.104 21.9515 158.485 22.1483 158.747C22.2468 158.878 22.3309 158.979 22.3938 159.052C22.4252 159.088 22.4513 159.117 22.4713 159.138C22.4813 159.149 22.4897 159.158 22.4965 159.165L22.5054 159.174L22.5089 159.178L22.5104 159.179C22.5108 159.18 22.5118 159.181 23.1948 158.489L22.5118 159.181L23.1949 159.873L23.8779 159.18C24.906 158.139 25.4451 156.628 25.733 155.496C25.7445 155.451 25.7556 155.406 25.7665 155.361C25.9204 155.465 26.0886 155.56 26.2692 155.635C26.713 155.817 27.2909 155.895 27.8719 155.6L27.9712 155.55L28.0567 155.478C29.2344 154.488 29.89 153.397 30.1476 152.284C30.4026 151.182 30.2469 150.147 29.9559 149.289C29.6661 148.434 29.2316 147.723 28.8796 147.232C28.7019 146.985 28.5406 146.787 28.4215 146.649C28.3618 146.58 28.3123 146.525 28.2762 146.486C28.2581 146.467 28.2434 146.451 28.2323 146.44L28.2185 146.425L28.2138 146.42L28.2119 146.419L28.2112 146.418M18.4891 146.284L18.4907 146.283L18.4927 146.281L18.4979 146.276L18.5131 146.263C18.5253 146.253 18.5416 146.239 18.5621 146.222C18.6029 146.188 18.6599 146.142 18.7322 146.086C18.8765 145.976 19.0826 145.826 19.3421 145.662C19.858 145.336 20.6014 144.941 21.5011 144.68C23.3411 144.145 25.8078 144.189 28.1795 146.387L28.1953 146.402L28.2112 146.418M28.2112 146.418C28.2108 146.417 28.2105 146.417 27.5275 147.109L28.2112 146.418Z" stroke="#FF8F00" stroke-width="1.94468"/>
<path d="M17.0027 147.917C11.1647 141.108 8.59789 120.59 23.3671 109.389C34.4234 118.079 37.6976 136.625 29.8271 148.363C24.697 144.422 18.2408 146.662 17.0027 147.917Z" fill="#9747FF"/>
<path d="M34.6037 154.276C38.141 149.438 37.4326 140.12 33.9829 136.984C33.9829 136.984 32.2144 140.568 31.1536 145.944C32.156 146.661 34.2494 149.331 34.6037 154.276Z" fill="#7D13FF"/>
<path d="M12.4028 154.546C8.64389 149.327 9.19996 139.696 12.7155 136.635C12.7155 136.635 14.6171 140.453 15.8194 146.092C14.7941 146.78 12.6754 149.433 12.4028 154.546Z" fill="#7D13FF"/>
<path d="M23.1929 138.956C23.1929 138.956 26.7312 144.69 23.2827 153.023C23.2827 153.023 19.4788 144.87 23.1929 138.956Z" fill="#7D13FF"/>
<path d="M27.0193 124.147C29.0357 126.19 29.036 129.501 27.02 131.544C25.004 133.587 21.735 133.587 19.7186 131.545C17.7022 129.502 17.7019 126.191 19.7179 124.148C21.734 122.105 25.0029 122.105 27.0193 124.147Z" fill="#E6E6E6" stroke="#2A2946" stroke-width="1.94468"/>
</svg>
