<svg width="800" height="532" viewBox="0 0 800 532" fill="none" xmlns="http://www.w3.org/2000/svg">
<path d="M42.9168 529.968C32.5373 533.746 21.0093 528.406 17.7549 517.85C0.856709 463.042 -4.08015 405.16 3.37663 348.136C11.6991 284.491 35.2152 223.784 71.9391 171.142C108.663 118.499 157.516 75.4675 214.372 45.6806C271.228 15.8937 334.417 0.226568 398.603 0.00243862C462.789 -0.221691 526.086 15.0038 583.149 44.3929C640.212 73.782 689.364 116.472 726.455 168.856C763.545 221.241 787.485 281.782 796.251 345.367C804.106 402.338 799.574 460.253 783.059 515.178C779.878 525.756 768.388 531.176 757.982 527.471V527.471C747.576 523.765 742.202 512.339 745.323 501.743C759.72 452.881 763.604 401.442 756.626 350.83C748.736 293.604 727.191 239.117 693.809 191.971C660.428 144.824 616.191 106.404 564.834 79.9536C513.478 53.5034 456.51 39.8005 398.743 40.0022C340.976 40.2039 284.105 54.3043 232.935 81.1125C181.764 107.921 137.797 146.649 104.745 194.028C71.6937 241.406 50.5291 296.042 43.039 353.322C36.4146 403.981 40.6581 455.392 55.3955 504.153C58.5912 514.726 53.2964 526.19 42.9168 529.968V529.968Z" fill="#7D7D7D" fill-opacity="0.2"/>
</svg>
