<svg width="46" height="51" viewBox="0 0 46 51" fill="none" xmlns="http://www.w3.org/2000/svg">
<path d="M17.0027 38.9167C11.1647 32.1078 8.5979 11.5902 23.3671 0.389075C34.4234 9.07898 37.6976 27.6254 29.8271 39.3634C24.697 35.4216 18.2408 37.6622 17.0027 38.9167Z" fill="#9747FF"/>
<path d="M34.6036 45.2763C38.1409 40.4377 37.4325 31.1196 33.9828 27.984C33.9828 27.984 32.2143 31.5681 31.1535 36.944C32.1559 37.6607 34.2493 40.3305 34.6036 45.2763Z" fill="#7D13FF"/>
<path d="M12.4028 45.5459C8.6439 40.3268 9.19997 30.6962 12.7155 27.635C12.7155 27.635 14.6171 31.4534 15.8194 37.0918C14.7941 37.7795 12.6754 40.4331 12.4028 45.5459Z" fill="#7D13FF"/>
<path d="M23.1929 29.9563C23.1929 29.9563 26.7312 35.6902 23.2827 44.0231C23.2827 44.0231 19.4788 35.8701 23.1929 29.9563Z" fill="#7D13FF"/>
<path d="M27.0193 15.1474C29.0357 17.1898 29.036 20.5013 27.02 22.544C25.004 24.5867 21.735 24.5871 19.7186 22.5447C17.7022 20.5024 17.7019 17.1909 19.7179 15.1481C21.734 13.1054 25.0029 13.1051 27.0193 15.1474Z" fill="#E6E6E6" stroke="#2A2946" stroke-width="1.94468"/>
</svg>
