<svg width="333" height="333" viewBox="0 0 333 333" fill="none" xmlns="http://www.w3.org/2000/svg">
<g clip-path="url(#clip0_361_3906)">
<path d="M50.2511 214.94L49.4619 214.499L49.419 214.578L49.3925 214.665C48.6925 216.948 49.0859 218.82 49.9174 220.218C50.7283 221.582 51.9281 222.453 52.8224 222.851L53.288 223.059L53.701 222.765C53.9894 222.559 54.2086 222.274 54.3757 221.978C54.7973 222.591 55.2369 223.073 55.636 223.443C56.0167 223.797 56.3598 224.048 56.6148 224.214C56.7424 224.297 56.8481 224.359 56.9259 224.402C56.9648 224.424 56.9968 224.441 57.021 224.453C57.0332 224.459 57.0433 224.464 57.0515 224.468L57.0622 224.474L57.0664 224.476L57.0682 224.476C57.0687 224.477 57.0699 224.477 57.4462 223.656L57.0699 224.477L57.8859 224.864L58.2622 224.043C58.8286 222.807 58.8192 221.317 58.7108 220.238C58.7065 220.195 58.702 220.152 58.6974 220.11C58.8647 220.152 59.0417 220.181 59.2229 220.189C59.6682 220.207 60.1972 220.091 60.6108 219.649L60.6815 219.574L60.7333 219.484C61.4467 218.246 61.6725 217.086 61.5436 216.032C61.4159 214.989 60.9513 214.135 60.4247 213.479C59.9003 212.825 59.2951 212.342 58.8321 212.026C58.5983 211.866 58.3947 211.745 58.2469 211.662C58.1729 211.621 58.1123 211.589 58.0684 211.566C58.0464 211.555 58.0286 211.546 58.0153 211.54L57.9987 211.531L57.993 211.529L57.9908 211.528L57.99 211.527C57.9895 211.527 57.9891 211.527 57.6129 212.348L57.99 211.527L57.971 211.518L57.9525 211.51C55.1843 210.346 53.0172 211.09 51.5811 212.142C50.8789 212.656 50.3556 213.237 50.0089 213.685C49.8345 213.911 49.702 214.107 49.6113 214.249C49.5658 214.321 49.5307 214.379 49.5059 214.421C49.4933 214.443 49.4835 214.46 49.4762 214.473L49.4671 214.489L49.464 214.495L49.4628 214.497L49.4619 214.499C49.4616 214.499 49.4619 214.499 50.2511 214.94Z" fill="#FFDE12"/>
<path d="M49.4619 214.499L50.2511 214.94C49.4619 214.499 49.4616 214.499 49.4619 214.499ZM49.4619 214.499L49.419 214.578L49.3925 214.665C48.6925 216.948 49.0859 218.82 49.9174 220.218C50.7283 221.582 51.9281 222.453 52.8224 222.851L53.288 223.059L53.701 222.765C53.9894 222.559 54.2086 222.274 54.3757 221.978C54.7973 222.591 55.2369 223.073 55.636 223.443C56.0167 223.797 56.3598 224.048 56.6148 224.214C56.7424 224.297 56.8481 224.359 56.9259 224.402C56.9648 224.424 56.9968 224.441 57.021 224.453C57.0332 224.459 57.0433 224.464 57.0515 224.468L57.0622 224.474L57.0664 224.476L57.0682 224.476C57.0687 224.477 57.0699 224.477 57.4462 223.656L57.0699 224.477L57.8859 224.864L58.2622 224.043C58.8286 222.807 58.8192 221.317 58.7108 220.238C58.7065 220.195 58.702 220.152 58.6974 220.11C58.8647 220.152 59.0417 220.181 59.2229 220.189C59.6682 220.207 60.1972 220.091 60.6108 219.649L60.6815 219.574L60.7333 219.484C61.4467 218.246 61.6725 217.086 61.5436 216.032C61.4159 214.989 60.9513 214.135 60.4247 213.479C59.9003 212.825 59.2951 212.342 58.8321 212.026C58.5983 211.866 58.3947 211.745 58.2469 211.662C58.1729 211.621 58.1123 211.589 58.0684 211.566C58.0464 211.555 58.0286 211.546 58.0153 211.54L57.9987 211.531L57.993 211.529L57.9908 211.528L57.99 211.527M49.4619 214.499L49.4628 214.497L49.464 214.495L49.4671 214.489L49.4762 214.473C49.4835 214.46 49.4933 214.443 49.5059 214.421C49.5307 214.379 49.5658 214.321 49.6113 214.249C49.702 214.107 49.8345 213.911 50.0089 213.685C50.3556 213.237 50.8789 212.656 51.5811 212.142C53.0172 211.09 55.1843 210.346 57.9525 211.51L57.971 211.518L57.99 211.527M57.99 211.527C57.9895 211.527 57.9891 211.527 57.6129 212.348L57.99 211.527Z" stroke="#FF8F00" stroke-width="1.80627"/>
<path d="M48.6832 216.396C41.4247 212.308 32.6664 195.215 41.9988 180.747C54.4094 184.819 63.1589 199.967 60.0184 212.712C54.2885 210.901 49.3653 214.908 48.6832 216.396Z" fill="#9747FF"/>
<path d="M66.0659 216.355C67.6162 211.008 64.0378 203.101 60.0307 201.46C60.0307 201.46 59.6257 205.15 60.4077 210.179C61.5102 210.486 64.1855 212.151 66.0659 216.355Z" fill="#7D13FF"/>
<path d="M46.7744 223.643C41.8356 220.282 39.2615 211.7 41.3574 207.911C41.3574 207.911 44.2302 210.64 47.0707 215.179C46.3943 216.105 45.3881 219.094 46.7744 223.643Z" fill="#7D13FF"/>
<path d="M51.2396 206.609C51.2396 206.609 56.1494 210.489 55.7866 218.858C55.7866 218.858 49.8765 212.95 51.2396 206.609Z" fill="#7D13FF"/>
<path d="M49.8748 192.468C52.2836 193.61 53.3358 196.5 52.2252 198.923C51.1145 201.347 48.2614 202.386 45.8527 201.244C43.4439 200.102 42.3917 197.211 43.5023 194.788C44.6131 192.365 47.4661 191.326 49.8748 192.468Z" fill="#E6E6E6" stroke="#2A2946" stroke-width="1.80627"/>
</g>
<defs>
<clipPath id="clip0_361_3906">
<rect width="42.726" height="49.2277" fill="white" transform="translate(21.4802 187.831) rotate(-20)"/>
</clipPath>
</defs>
</svg>
