<svg width="156" height="156" viewBox="0 0 156 156" fill="none" xmlns="http://www.w3.org/2000/svg">
<g clip-path="url(#clip0_73_996)">
<path d="M62.0395 100.825C48.0966 81.8639 45.6729 27.9457 86.9591 1.97531C114.255 26.9477 118.959 75.8902 95.7376 104.735C83.0534 93.3832 65.5672 97.8276 62.0395 100.825Z" fill="#9747FF"/>
<path d="M107.073 121.139C117.417 109.311 117.522 84.9225 109.095 76.0273C109.095 76.0273 103.677 84.9709 99.7444 98.7269C102.234 100.806 107.186 108.199 107.073 121.139Z" fill="#7D13FF"/>
<path d="M48.5163 117.083C39.7155 102.702 43.2179 77.7714 53.1287 70.5622C53.1287 70.5622 57.3318 80.9016 59.3074 95.8252C56.4602 97.3943 50.316 103.843 48.5163 117.083Z" fill="#7D13FF"/>
<path d="M80.246 78.8451C80.246 78.8451 88.3566 94.5177 77.5071 115.453C77.5071 115.453 69.2084 93.4316 80.246 78.8451Z" fill="#7D13FF"/>
<circle cx="83.0595" cy="49.9843" r="13.5576" transform="rotate(-40.3564 83.0595 49.9843)" fill="#E6E6E6" stroke="#2A2946" stroke-width="5.29076"/>
</g>
<defs>
<clipPath id="clip0_73_996">
<rect width="113.144" height="107.53" fill="white" transform="translate(0 73.2655) rotate(-40.3564)"/>
</clipPath>
</defs>
</svg>
