<svg width="390" height="699" viewBox="0 0 390 699" fill="none" xmlns="http://www.w3.org/2000/svg">
<path d="M158.208 1.73112C-112.572 27.4288 -258.281 349.985 -78.9467 570.285C3.90042 672.482 142.315 723.047 278.772 687.854C351.894 668.981 415.052 627.2 460.064 572.778C656.655 336.276 471.509 -28.1803 158.208 1.73112Z" fill="url(#paint0_radial_84_2289)"/>
<path d="M462.835 348.199C462.835 363.986 461.471 379.475 458.862 394.49C457.439 402.562 455.719 410.514 453.643 418.348C442.138 461.316 420.314 500.011 391.018 531.703C380.403 543.217 368.78 553.781 356.267 563.276C344.762 572.06 332.486 579.953 319.617 586.837C302.182 596.155 283.62 603.574 264.168 608.915C241.455 615.146 217.555 618.41 192.885 618.41C181.558 618.41 170.409 617.698 159.497 616.333C68.0512 605.057 -9.28073 547.964 -48.7769 468.735C-64.1958 437.874 -73.8623 403.689 -76.4123 367.546C-76.8867 361.137 -77.124 354.668 -77.124 348.199C-77.124 307.427 -68.1098 268.791 -51.9793 234.132C-37.5685 203.153 -17.4053 175.378 7.02778 152.173C29.6224 130.689 55.9532 113.062 84.9527 100.421C117.985 85.9995 154.516 77.9875 192.826 77.9875C309.239 77.9875 408.454 151.698 446.349 255.082C455.778 280.839 461.412 308.377 462.598 337.16C462.776 340.781 462.835 344.46 462.835 348.199Z" fill="url(#paint1_radial_84_2289)"/>
<path d="M163.234 422.8C162.878 424.996 162.108 427.073 160.981 428.972C152.382 444.403 122.433 451.999 89.0455 446.242C59.9868 441.198 36.799 427.429 29.3268 412.473C27.1326 408.082 26.3024 403.63 27.0733 399.179C30.4536 379.713 63.1299 375.025 100.728 381.612C138.327 388.081 166.615 403.334 163.234 422.8Z" fill="#BCBCBC"/>
<path d="M83.2335 294.133L83.1741 294.192C75.7019 305.469 52.3956 295.142 25.2939 277.397C3.17364 262.916 -12.6012 248.494 -13.6686 237.515C-13.9058 235.022 -13.372 232.649 -12.008 230.512C-4.53579 219.117 25.116 218.346 52.277 236.15C79.4381 253.954 90.7057 282.738 83.2335 294.133Z" fill="#BCBCBC"/>
<path d="M382.36 460.545C360.477 478.824 334.265 483.513 323.887 470.99C323.353 470.337 322.879 469.685 322.464 468.972C314.517 455.975 324.006 432.651 344.762 415.381C365.874 397.755 390.959 392.77 402.049 403.63C402.464 404.046 402.879 404.461 403.235 404.877C413.613 417.399 404.303 442.325 382.36 460.545Z" fill="#BCBCBC"/>
<path d="M224.494 310.691C202.374 328.199 179.898 337.873 167.029 321.612C165.784 320.068 164.775 318.407 163.886 316.626C155.702 300.128 163.767 276.21 183.812 260.364C205.932 242.857 236.118 234.607 256.696 260.661C256.815 260.839 256.992 261.017 257.052 261.195C269.15 277.279 246.437 293.362 224.494 310.691Z" fill="#BCBCBC"/>
<path d="M136.132 555.205C132.929 558.291 126.584 560.012 116.621 559.538C80.0898 557.935 40.4157 513.424 51.5055 499.121C51.6834 498.884 51.8613 498.706 52.0392 498.528C63.5441 485.531 92.3656 508.914 107.073 516.629C131.328 529.329 144.612 547.075 136.132 555.205Z" fill="#BCBCBC"/>
<path d="M279.409 522.386C279.468 530.813 268.023 539.715 249.995 540.487C217.022 541.911 198.223 535.561 193.775 523.81C193.3 522.564 193.004 521.258 192.826 519.834C191.225 505.531 221.41 507.964 237.304 507.133C267.133 505.531 279.35 513.721 279.409 522.386Z" fill="#BCBCBC"/>
<path d="M379.335 332.769C375.718 338.17 368.72 341.849 359.647 341.849C331.062 341.849 292.93 321.196 297.734 302.086C298.267 299.89 299.098 297.991 300.046 296.448C307.4 284.578 325.962 290.335 343.813 294.133C379.513 301.73 387.163 321.196 379.335 332.769Z" fill="#BCBCBC"/>
<path d="M286.525 192.411C286.169 191.58 285.991 190.63 285.873 189.621C285.161 181.491 293.167 169.621 308.764 165.348C318.905 162.559 332.604 162.915 341.084 168.137C344.82 170.452 347.489 173.657 348.497 178.049C350.869 188.969 291.566 205.052 286.525 192.411Z" fill="#BCBCBC"/>
<path d="M123.56 167.129C121.544 168.316 119.172 167.96 116.622 165.408C99.1272 147.9 97.5853 119.294 107.074 114.546C110.81 112.647 114.072 112.054 116.859 112.351C135.836 114.487 133.761 160.957 123.56 167.129Z" fill="#BCBCBC"/>
<path d="M391.019 531.703C370.559 553.84 346.423 572.535 319.617 586.778C316.593 585.295 313.865 583.099 312.797 579.953C311.849 577.164 312.264 573.603 315.17 569.093C326.259 551.585 337.408 524.582 362.79 522.979C370.203 522.504 376.074 523.395 380.759 525.056C385.266 526.718 388.587 529.092 391.019 531.703Z" fill="#BCBCBC"/>
<path d="M264.109 608.856C241.396 615.087 217.497 618.351 192.826 618.351C181.499 618.351 170.35 617.639 159.438 616.274C159.438 613.069 160.032 609.627 161.989 606.719C163.886 603.93 167.029 601.675 172.189 600.844C191.225 597.639 200.773 584.938 227.756 586.541C241.752 587.372 251.537 594.197 257.645 600.547C260.67 603.752 262.745 606.719 264.109 608.856Z" fill="#BCBCBC"/>
<path d="M229.595 116.505C228.231 123.27 216.785 125.704 211.27 123.152C210.084 122.617 209.194 121.846 208.72 120.896C205.517 114.546 226.452 102.677 229.357 112.944C229.713 114.249 229.773 115.436 229.595 116.505Z" fill="#BCBCBC"/>
<path d="M146.805 473.72C139.689 470.159 134.114 467.37 135.715 481.673C137.317 495.976 148.406 499.181 157.954 499.181C167.443 499.181 153.151 476.925 146.805 473.72Z" fill="#9B9B9B"/>
<path d="M14.9743 464.225C8.62881 462.622 8.62884 473.78 3.88455 484.878C-0.859733 495.976 5.48572 503.928 14.9743 503.928C24.5222 503.928 27.6653 467.37 14.9743 464.225Z" fill="#9B9B9B"/>
<path d="M-13.6102 321.136C-19.7185 318.347 -26.3012 314.786 -27.9024 321.136C-29.5036 327.487 -15.2114 344.994 -7.26476 344.994C0.681925 344.994 3.82506 329.089 -13.6102 321.136Z" fill="#9B9B9B"/>
<path d="M299.275 365.647C290.083 364.52 284.983 371.998 299.275 378.348C313.567 384.757 311.966 367.25 299.275 365.647Z" fill="#9B9B9B"/>
<path d="M183.337 182.915C178.593 184.517 172.247 189.265 183.337 190.868C194.427 192.411 188.081 181.313 183.337 182.915Z" fill="#9B9B9B"/>
<path d="M210.32 182.915C204.508 179.532 203.974 195.615 208.718 201.966C213.463 208.316 229.356 194.013 210.32 182.915Z" fill="#9B9B9B"/>
<path d="M261.143 559.597C257.703 560.368 256.398 565.947 265.887 569.152C275.435 572.297 275.435 556.392 261.143 559.597Z" fill="#9B9B9B"/>
<path d="M122.966 586.6C118.221 588.203 113.418 591.348 122.966 594.553C132.514 597.698 127.71 584.998 122.966 586.6Z" fill="#9B9B9B"/>
<path d="M130.912 352.947C122.847 353.362 140.46 364.045 145.205 365.647C149.949 367.25 164.241 351.345 130.912 352.947Z" fill="#9B9B9B"/>
<path d="M391.373 311.64C387.4 314.727 394.576 332.294 400.921 330.691C407.267 329.089 405.666 300.483 391.373 311.64Z" fill="#9B9B9B"/>
<path d="M263.635 423.037C262.924 425.767 262.034 428.438 261.145 430.812C256.519 443.216 229.18 448.082 221.945 442.385C221.767 442.266 221.589 442.088 221.411 441.91C215.066 435.56 221.233 419.595 224.613 411.702C229.358 400.604 253.198 392.651 261.145 395.797C267.549 398.467 266.719 411.465 263.635 423.037Z" fill="#BCBCBC"/>
<path d="M-13.6686 237.575C-13.9058 235.082 -13.372 232.708 -12.008 230.572C-4.53579 219.177 25.116 218.405 52.277 236.21C79.4381 254.014 90.7057 282.798 83.2335 294.193L83.1741 294.252C83.5893 287.308 80.6834 277.575 70.5425 263.985C44.0931 228.672 -4.12074 216.506 -13.6686 237.575Z" fill="#9B9B9B"/>
<path d="M163.234 422.8C162.878 424.996 162.108 427.073 160.981 428.972C160.328 426.242 154.457 404.817 127.711 395.856C99.9574 386.597 62.5961 378.348 40.3573 395.856C33.2408 401.434 30.2163 407.191 29.3268 412.414C27.1326 408.022 26.3024 403.571 27.0733 399.12C30.4536 379.654 63.1299 374.965 100.728 381.553C138.327 388.081 166.615 403.333 163.234 422.8Z" fill="#9B9B9B"/>
<path d="M207.118 255.973C177.585 266.18 165.131 295.142 163.886 316.626C155.702 300.128 163.767 276.21 183.812 260.364C205.932 242.857 236.118 234.607 256.696 260.661C256.815 260.839 256.992 261.017 257.052 261.195C248.156 254.311 231.966 247.427 207.118 255.973Z" fill="#9B9B9B"/>
<path d="M263.635 423.037C263.339 411.524 260.492 398.527 248.454 402.206C236.119 406.004 222.123 428.379 222.004 442.385C221.826 442.266 221.649 442.088 221.471 441.91C215.125 435.56 221.293 419.595 224.673 411.702C229.417 400.604 253.257 392.651 261.204 395.797C267.55 398.467 266.719 411.465 263.635 423.037Z" fill="#9B9B9B"/>
<path d="M379.336 332.769C382.954 311.819 349.388 305.053 332.605 298.94C316 292.887 304.613 295.023 299.988 296.448C307.341 284.578 325.903 290.335 343.754 294.133C379.514 301.73 387.164 321.196 379.336 332.769Z" fill="#9B9B9B"/>
<path d="M286.527 192.411C286.171 191.58 285.993 190.63 285.875 189.621C295.897 196.268 321.575 190.868 335.749 184.458C345.89 179.829 344.229 173.063 341.086 168.197C344.822 170.511 347.491 173.716 348.499 178.108C350.871 188.969 291.568 205.052 286.527 192.411Z" fill="#9B9B9B"/>
<path d="M123.56 167.129C121.544 168.316 119.172 167.96 116.622 165.408C99.1272 147.9 97.5853 119.294 107.074 114.546C110.81 112.647 114.072 112.054 116.859 112.351C113.004 113.063 107.074 116.446 107.074 130.452C107.074 146.594 114.843 159.829 123.56 167.129Z" fill="#9B9B9B"/>
<path d="M229.595 116.505C229.061 113.775 226.926 111.163 219.869 112.944C214.117 114.368 211.922 118.76 211.27 123.152C210.084 122.617 209.194 121.846 208.72 120.896C205.517 114.546 226.452 102.677 229.357 112.944C229.713 114.249 229.773 115.436 229.595 116.505Z" fill="#9B9B9B"/>
<path d="M136.132 555.205C134.768 546.659 126.94 538.35 113.418 530.932C95.9237 521.377 83.2327 511.881 72.143 503.929C66.3312 499.774 58.3252 498.647 52.0391 498.528C63.544 485.531 92.3655 508.914 107.073 516.629C131.328 529.329 144.612 547.075 136.132 555.205Z" fill="#9B9B9B"/>
<path d="M279.409 522.386C276.859 516.035 269.15 513.424 256.34 513.424H211.862C194.842 513.424 193.775 523.276 193.775 523.751C193.3 522.504 193.004 521.199 192.826 519.774C191.225 505.472 221.41 507.905 237.304 507.074C267.133 505.531 279.35 513.721 279.409 522.386Z" fill="#9B9B9B"/>
<path d="M257.645 600.606C260.67 603.692 262.745 606.719 264.109 608.856C241.396 615.087 217.497 618.351 192.826 618.351C181.499 618.351 170.35 617.639 159.438 616.274C159.438 613.069 160.032 609.627 161.989 606.719C214.769 619.182 245.192 607.609 257.645 600.606Z" fill="#9B9B9B"/>
<path d="M391.018 531.704C370.559 553.84 346.422 572.535 319.617 586.778C316.592 585.295 313.864 583.099 312.797 579.953C357.097 563.336 376.252 533.247 380.759 525.116C385.266 526.718 388.587 529.092 391.018 531.704Z" fill="#9B9B9B"/>
<path d="M402.049 403.63C398.491 402.384 373.168 395.321 343.694 429.209C328.809 446.361 323.65 459.655 322.464 468.972C314.517 455.975 324.006 432.651 344.762 415.381C365.874 397.814 390.959 392.769 402.049 403.63Z" fill="#9B9B9B"/>
<path opacity="0.45" d="M356.267 563.276C344.762 572.06 332.486 579.953 319.617 586.837C302.182 596.155 283.62 603.573 264.168 608.915C241.455 615.146 217.555 618.41 192.885 618.41C181.558 618.41 170.409 617.698 159.497 616.333C68.0512 605.057 -9.28074 547.964 -48.7769 468.735C-64.1959 437.874 -73.8623 403.689 -76.4123 367.546C-76.8867 361.137 -77.124 354.668 -77.124 348.199C-77.124 307.427 -68.1098 268.791 -51.9793 234.132C-37.5685 203.152 -17.4053 175.378 7.02776 152.173C-68.2878 511.643 208.719 561.436 356.267 563.276Z" fill="url(#paint2_linear_84_2289)"/>
<path d="M462.836 348.199C462.836 363.986 461.471 379.475 458.862 394.49C457.439 402.562 455.719 410.514 453.643 418.348C444.273 201.016 297.201 77.4535 84.9531 100.421C117.985 85.9996 154.516 77.9876 192.826 77.9876C309.239 77.9876 408.454 151.698 446.349 255.082C455.778 280.839 461.412 308.377 462.598 337.16C462.776 340.781 462.836 344.46 462.836 348.199Z" fill="url(#paint3_linear_84_2289)"/>
<defs>
<radialGradient id="paint0_radial_84_2289" cx="0" cy="0" r="1" gradientUnits="userSpaceOnUse" gradientTransform="translate(191.506 349.481) scale(323.397 323.639)">
<stop stop-color="#F8F8F8"/>
<stop offset="1" stop-color="white" stop-opacity="0"/>
</radialGradient>
<radialGradient id="paint1_radial_84_2289" cx="0" cy="0" r="1" gradientUnits="userSpaceOnUse" gradientTransform="translate(180.931 205.145) scale(412.283 412.591)">
<stop stop-color="#E8E8E8"/>
<stop offset="1" stop-color="#DFDFDF"/>
</radialGradient>
<linearGradient id="paint2_linear_84_2289" x1="140.672" y1="739.007" x2="138.034" y2="69.3725" gradientUnits="userSpaceOnUse">
<stop/>
<stop offset="1" stop-opacity="0.2"/>
</linearGradient>
<linearGradient id="paint3_linear_84_2289" x1="433.001" y1="77.8683" x2="268.6" y2="259.884" gradientUnits="userSpaceOnUse">
<stop stop-color="#B7B7B7"/>
<stop offset="0.557292" stop-color="#AEAEAE" stop-opacity="0.2"/>
</linearGradient>
</defs>
</svg>
